<svg xmlns="http://www.w3.org/2000/svg" viewBox="0 0 297.6 72.98"><defs><style>.cls-1{fill:#004c9b;}.cls-2{fill:#edaa00;}.cls-3{fill:#fff;}</style></defs><title>Risorsa 1</title><g id="Livello_2" data-name="Livello 2"><g id="Livello_1-2" data-name="Livello 1"><path class="cls-1" d="M0,50.46V72.28H59.24C42.66,60.68,23.59,53.43,0,50.46"/><path class="cls-1" d="M56,0a26.2,26.2,0,0,1,4.35,14.59c-.11,11.76-10.3,21.68-22.95,22.3A140.72,140.72,0,0,1,72.29,55.16V0Z"/><path class="cls-1" d="M52.34,14A18.34,18.34,0,0,0,45.57,0H0V28.44C26.53,30.81,52.34,33,52.34,14Z"/><path class="cls-1" d="M0,42.65C30,45,57.37,59.54,72.29,72.28V64.86C38.53,38.09,0,36.42,0,36.42Z"/><path class="cls-2" d="M60.37,14.59A26.2,26.2,0,0,0,56,0H45.57a18.34,18.34,0,0,1,6.77,14C52.34,33,26.53,30.81,0,28.44v8s38.53,1.67,72.29,28.44V55.16A140.72,140.72,0,0,0,37.42,36.89C50.08,36.27,60.26,26.35,60.37,14.59Z"/><path class="cls-1" d="M122.58,37.77l-7.77-13.35H100.2V37.77H92.48V2.93a1.86,1.86,0,0,0-.36-1.3A3,3,0,0,0,90.71.89V0h27.75a11.51,11.51,0,0,1,8.71,3.44,12.22,12.22,0,0,1,3.28,8.92c0,6-2.4,9.81-7.25,11.37l8.08,14Zm.26-25.66a4.56,4.56,0,0,0-1.41-3.5,5.17,5.17,0,0,0-3.81-1.36H100.2v9.91h17.42a5.36,5.36,0,0,0,3.86-1.36A5,5,0,0,0,122.84,12.11Z"/><path class="cls-1" d="M173.95,37.77H138.33V2.93a2,2,0,0,0-.37-1.3,3,3,0,0,0-1.41-.73V0H172.7V7.25H146V15h18.52v7.25H146v8.29h27.91Z"/><path class="cls-1" d="M212.49,37.77l-3.6-8.14H188.55l-3.65,8.14h-7.77l14.71-33a4.65,4.65,0,0,0,.63-2c0-.89-.57-1.46-1.56-1.83V0h12.62l16.79,37.76ZM198.67,6.84l-6.94,15.54H205.6Z"/><path class="cls-1" d="M256.87,37.77H224.74V2.93a1.86,1.86,0,0,0-.42-1.3A2.74,2.74,0,0,0,223,.89V0h9.49V30.52h24.41Z"/><path class="cls-1" d="M297.6,37.77H262V2.93a1.94,1.94,0,0,0-.37-1.3A2.94,2.94,0,0,0,260.2.89V0h36.14V7.25H269.7V15h18.52v7.25H269.7v8.29h27.9Z"/><path class="cls-1" d="M120.06,59.7a12.13,12.13,0,0,1-3.71,9.23A15,15,0,0,1,105.53,73,14.21,14.21,0,0,1,95,68.89a12.07,12.07,0,0,1-3.58-9A12.08,12.08,0,0,1,95,51a14.45,14.45,0,0,1,10.49-4.12c5.41,0,9.43,2,12.05,5.85L111,55.51l-.2-.41a1.61,1.61,0,0,0,.24-.34.86.86,0,0,0,.14-.75,2.8,2.8,0,0,0-1.36-1.29,9,9,0,0,0-4.32-1.06A9.31,9.31,0,0,0,98.92,54a7.77,7.77,0,0,0-2.52,5.89,7.49,7.49,0,0,0,3,6.26,9.57,9.57,0,0,0,6.1,2A10.44,10.44,0,0,0,111,66.72,7.86,7.86,0,0,0,114.48,63h-10V58.27h15.59Z"/><path class="cls-1" d="M157.93,72.27l-5.07-8.72h-9.53v8.72h-5V49.52a1.2,1.2,0,0,0-.24-.85,1.89,1.89,0,0,0-.92-.48v-.58h18.11a7.51,7.51,0,0,1,5.69,2.25,8,8,0,0,1,2.14,5.82c0,3.91-1.57,6.4-4.73,7.42l5.28,9.16Zm.17-16.75a3,3,0,0,0-.92-2.28,3.38,3.38,0,0,0-2.49-.88H143.32v6.47h11.37a3.49,3.49,0,0,0,2.52-.88A3.29,3.29,0,0,0,158.1,55.51Z"/><path class="cls-1" d="M208.32,59.91a12.1,12.1,0,0,1-3.58,9,15.64,15.64,0,0,1-21,0,12.21,12.21,0,0,1-3.54-9,12.06,12.06,0,0,1,3.58-9,15.5,15.5,0,0,1,21,0A12.06,12.06,0,0,1,208.32,59.91Zm-5.18,0a8,8,0,0,0-2.42-6,10.19,10.19,0,0,0-12.94,0,8,8,0,0,0-2.42,6A8,8,0,0,0,187.75,66a10.36,10.36,0,0,0,13,0A8,8,0,0,0,203.14,59.91Z"/><path class="cls-1" d="M251.83,64a7.75,7.75,0,0,1-3.34,6.47Q245,73,239.3,73t-9.19-2.55A7.75,7.75,0,0,1,226.77,64V49.49a1.28,1.28,0,0,0-.27-.85,1.63,1.63,0,0,0-.89-.44v-.58h6.2V63.17a4.25,4.25,0,0,0,2,3.68,11.55,11.55,0,0,0,11.06,0,4.28,4.28,0,0,0,1.94-3.64V47.62h5Z"/><path class="cls-1" d="M296.5,55.69c0,5.24-2.66,7.86-8,7.86H276.79v8.72h-5V49.52a1.41,1.41,0,0,0-.24-.85,1.91,1.91,0,0,0-.92-.48v-.58h18.11a7.44,7.44,0,0,1,5.65,2.25A8,8,0,0,1,296.5,55.69Zm-5,0c0-2.21-1.12-3.3-3.4-3.3H276.79v6.47h11.37a3.45,3.45,0,0,0,2.49-.85A3.11,3.11,0,0,0,291.53,55.65Z"/><path class="cls-3" d="M0,50.46c23.59,3,42.66,10.22,59.24,21.82H72.29C57.37,59.54,30,45,0,42.65Z"/></g></g></svg>