<?xml version="1.0" encoding="utf-8" standalone="no"?>
<!DOCTYPE svg PUBLIC "-//W3C//DTD SVG 1.1//EN"
  "http://www.w3.org/Graphics/SVG/1.1/DTD/svg11.dtd">
<!-- Created with matplotlib (http://matplotlib.org/) -->
<svg height="345pt" version="1.1" viewBox="0 0 460 345" width="460pt" xmlns="http://www.w3.org/2000/svg" xmlns:xlink="http://www.w3.org/1999/xlink">
 <defs>
  <style type="text/css">
*{stroke-linecap:butt;stroke-linejoin:round;}
  </style>
 </defs>
 <g id="figure_1">
  <g id="patch_1">
   <path d="M 0 345.6 
L 460.8 345.6 
L 460.8 0 
L 0 0 
z
" style="fill:#ffffff;"/>
  </g>
  <g id="axes_1">
   <g id="patch_2">
    <path d="M 57.6 162.432 
L 414.72 162.432 
L 414.72 41.472 
L 57.6 41.472 
z
" style="fill:#ffffff;"/>
   </g>
   <g id="patch_3">
    <path clip-path="url(#p970ab4bc81)" d="M 73.832727 1806.14794 
L 76.095128 1806.14794 
L 76.095128 104.473553 
L 73.832727 104.473553 
z
" style="fill:#1f77b4;"/>
   </g>
   <g id="patch_4">
    <path clip-path="url(#p970ab4bc81)" d="M 76.660729 1806.14794 
L 78.92313 1806.14794 
L 78.92313 52.569327 
L 76.660729 52.569327 
z
" style="fill:#1f77b4;"/>
   </g>
   <g id="patch_5">
    <path clip-path="url(#p970ab4bc81)" d="M 79.48873 1806.14794 
L 81.751131 1806.14794 
L 81.751131 53.237629 
L 79.48873 53.237629 
z
" style="fill:#1f77b4;"/>
   </g>
   <g id="patch_6">
    <path clip-path="url(#p970ab4bc81)" d="M 82.316731 1806.14794 
L 84.579132 1806.14794 
L 84.579132 52.150947 
L 82.316731 52.150947 
z
" style="fill:#1f77b4;"/>
   </g>
   <g id="patch_7">
    <path clip-path="url(#p970ab4bc81)" d="M 85.144732 1806.14794 
L 87.407133 1806.14794 
L 87.407133 62.688262 
L 85.144732 62.688262 
z
" style="fill:#1f77b4;"/>
   </g>
   <g id="patch_8">
    <path clip-path="url(#p970ab4bc81)" d="M 87.972734 1806.14794 
L 90.235135 1806.14794 
L 90.235135 141.067337 
L 87.972734 141.067337 
z
" style="fill:#1f77b4;"/>
   </g>
   <g id="patch_9">
    <path clip-path="url(#p970ab4bc81)" d="M 90.800735 1806.14794 
L 93.063136 1806.14794 
L 93.063136 141.067337 
L 90.800735 141.067337 
z
" style="fill:#1f77b4;"/>
   </g>
   <g id="patch_10">
    <path clip-path="url(#p970ab4bc81)" d="M 93.628736 1806.14794 
L 95.891137 1806.14794 
L 95.891137 109.108992 
L 93.628736 109.108992 
z
" style="fill:#1f77b4;"/>
   </g>
   <g id="patch_11">
    <path clip-path="url(#p970ab4bc81)" d="M 96.456737 1806.14794 
L 98.719138 1806.14794 
L 98.719138 61.722947 
L 96.456737 61.722947 
z
" style="fill:#1f77b4;"/>
   </g>
   <g id="patch_12">
    <path clip-path="url(#p970ab4bc81)" d="M 99.284739 1806.14794 
L 101.54714 1806.14794 
L 101.54714 141.067337 
L 99.284739 141.067337 
z
" style="fill:#1f77b4;"/>
   </g>
   <g id="patch_13">
    <path clip-path="url(#p970ab4bc81)" d="M 102.11274 1806.14794 
L 104.375141 1806.14794 
L 104.375141 101.737857 
L 102.11274 101.737857 
z
" style="fill:#1f77b4;"/>
   </g>
   <g id="patch_14">
    <path clip-path="url(#p970ab4bc81)" d="M 104.940741 1806.14794 
L 107.203142 1806.14794 
L 107.203142 46.970182 
L 104.940741 46.970182 
z
" style="fill:#1f77b4;"/>
   </g>
   <g id="patch_15">
    <path clip-path="url(#p970ab4bc81)" d="M 107.768742 1806.14794 
L 110.031143 1806.14794 
L 110.031143 102.685386 
L 107.768742 102.685386 
z
" style="fill:#1f77b4;"/>
   </g>
   <g id="patch_16">
    <path clip-path="url(#p970ab4bc81)" d="M 110.596744 1806.14794 
L 112.859145 1806.14794 
L 112.859145 48.851112 
L 110.596744 48.851112 
z
" style="fill:#1f77b4;"/>
   </g>
   <g id="patch_17">
    <path clip-path="url(#p970ab4bc81)" d="M 113.424745 1806.14794 
L 115.687146 1806.14794 
L 115.687146 52.863194 
L 113.424745 52.863194 
z
" style="fill:#1f77b4;"/>
   </g>
   <g id="patch_18">
    <path clip-path="url(#p970ab4bc81)" d="M 116.252746 1806.14794 
L 118.515147 1806.14794 
L 118.515147 58.647696 
L 116.252746 58.647696 
z
" style="fill:#1f77b4;"/>
   </g>
   <g id="patch_19">
    <path clip-path="url(#p970ab4bc81)" d="M 119.080748 1806.14794 
L 121.343149 1806.14794 
L 121.343149 53.46406 
L 119.080748 53.46406 
z
" style="fill:#1f77b4;"/>
   </g>
   <g id="patch_20">
    <path clip-path="url(#p970ab4bc81)" d="M 121.908749 1806.14794 
L 124.17115 1806.14794 
L 124.17115 58.733571 
L 121.908749 58.733571 
z
" style="fill:#1f77b4;"/>
   </g>
   <g id="patch_21">
    <path clip-path="url(#p970ab4bc81)" d="M 124.73675 1806.14794 
L 126.999151 1806.14794 
L 126.999151 56.456325 
L 124.73675 56.456325 
z
" style="fill:#1f77b4;"/>
   </g>
   <g id="patch_22">
    <path clip-path="url(#p970ab4bc81)" d="M 127.564751 1806.14794 
L 129.827152 1806.14794 
L 129.827152 60.17422 
L 127.564751 60.17422 
z
" style="fill:#1f77b4;"/>
   </g>
   <g id="patch_23">
    <path clip-path="url(#p970ab4bc81)" d="M 130.392753 1806.14794 
L 132.655154 1806.14794 
L 132.655154 58.865571 
L 130.392753 58.865571 
z
" style="fill:#1f77b4;"/>
   </g>
   <g id="patch_24">
    <path clip-path="url(#p970ab4bc81)" d="M 133.220754 1806.14794 
L 135.483155 1806.14794 
L 135.483155 61.754935 
L 133.220754 61.754935 
z
" style="fill:#1f77b4;"/>
   </g>
   <g id="patch_25">
    <path clip-path="url(#p970ab4bc81)" d="M 136.048755 1806.14794 
L 138.311156 1806.14794 
L 138.311156 61.805937 
L 136.048755 61.805937 
z
" style="fill:#1f77b4;"/>
   </g>
   <g id="patch_26">
    <path clip-path="url(#p970ab4bc81)" d="M 138.876756 1806.14794 
L 141.139157 1806.14794 
L 141.139157 61.775551 
L 138.876756 61.775551 
z
" style="fill:#1f77b4;"/>
   </g>
   <g id="patch_27">
    <path clip-path="url(#p970ab4bc81)" d="M 141.704758 1806.14794 
L 143.967159 1806.14794 
L 143.967159 61.830285 
L 141.704758 61.830285 
z
" style="fill:#1f77b4;"/>
   </g>
   <g id="patch_28">
    <path clip-path="url(#p970ab4bc81)" d="M 144.532759 1806.14794 
L 146.79516 1806.14794 
L 146.79516 58.188264 
L 144.532759 58.188264 
z
" style="fill:#1f77b4;"/>
   </g>
   <g id="patch_29">
    <path clip-path="url(#p970ab4bc81)" d="M 147.36076 1806.14794 
L 149.623161 1806.14794 
L 149.623161 54.25412 
L 147.36076 54.25412 
z
" style="fill:#1f77b4;"/>
   </g>
   <g id="patch_30">
    <path clip-path="url(#p970ab4bc81)" d="M 150.188761 1806.14794 
L 152.451162 1806.14794 
L 152.451162 60.950792 
L 150.188761 60.950792 
z
" style="fill:#1f77b4;"/>
   </g>
   <g id="patch_31">
    <path clip-path="url(#p970ab4bc81)" d="M 153.016763 1806.14794 
L 155.279164 1806.14794 
L 155.279164 59.56526 
L 153.016763 59.56526 
z
" style="fill:#1f77b4;"/>
   </g>
   <g id="patch_32">
    <path clip-path="url(#p970ab4bc81)" d="M 155.844764 1806.14794 
L 158.107165 1806.14794 
L 158.107165 138.540675 
L 155.844764 138.540675 
z
" style="fill:#1f77b4;"/>
   </g>
   <g id="patch_33">
    <path clip-path="url(#p970ab4bc81)" d="M 158.672765 1806.14794 
L 160.935166 1806.14794 
L 160.935166 141.314738 
L 158.672765 141.314738 
z
" style="fill:#1f77b4;"/>
   </g>
   <g id="patch_34">
    <path clip-path="url(#p970ab4bc81)" d="M 161.500767 1806.14794 
L 163.763168 1806.14794 
L 163.763168 141.017018 
L 161.500767 141.017018 
z
" style="fill:#1f77b4;"/>
   </g>
   <g id="patch_35">
    <path clip-path="url(#p970ab4bc81)" d="M 164.328768 1806.14794 
L 166.591169 1806.14794 
L 166.591169 128.164971 
L 164.328768 128.164971 
z
" style="fill:#1f77b4;"/>
   </g>
   <g id="patch_36">
    <path clip-path="url(#p970ab4bc81)" d="M 167.156769 1806.14794 
L 169.41917 1806.14794 
L 169.41917 141.017682 
L 167.156769 141.017682 
z
" style="fill:#1f77b4;"/>
   </g>
   <g id="patch_37">
    <path clip-path="url(#p970ab4bc81)" d="M 169.98477 1806.14794 
L 172.247171 1806.14794 
L 172.247171 143.405845 
L 169.98477 143.405845 
z
" style="fill:#1f77b4;"/>
   </g>
   <g id="patch_38">
    <path clip-path="url(#p970ab4bc81)" d="M 172.812772 1806.14794 
L 175.075173 1806.14794 
L 175.075173 142.650095 
L 172.812772 142.650095 
z
" style="fill:#1f77b4;"/>
   </g>
   <g id="patch_39">
    <path clip-path="url(#p970ab4bc81)" d="M 175.640773 1806.14794 
L 177.903174 1806.14794 
L 177.903174 141.750121 
L 175.640773 141.750121 
z
" style="fill:#1f77b4;"/>
   </g>
   <g id="patch_40">
    <path clip-path="url(#p970ab4bc81)" d="M 178.468774 1806.14794 
L 180.731175 1806.14794 
L 180.731175 142.311906 
L 178.468774 142.311906 
z
" style="fill:#1f77b4;"/>
   </g>
   <g id="patch_41">
    <path clip-path="url(#p970ab4bc81)" d="M 181.296775 1806.14794 
L 183.559176 1806.14794 
L 183.559176 143.042345 
L 181.296775 143.042345 
z
" style="fill:#1f77b4;"/>
   </g>
   <g id="patch_42">
    <path clip-path="url(#p970ab4bc81)" d="M 184.124777 1806.14794 
L 186.387178 1806.14794 
L 186.387178 141.64349 
L 184.124777 141.64349 
z
" style="fill:#1f77b4;"/>
   </g>
   <g id="patch_43">
    <path clip-path="url(#p970ab4bc81)" d="M 186.952778 1806.14794 
L 189.215179 1806.14794 
L 189.215179 143.49181 
L 186.952778 143.49181 
z
" style="fill:#1f77b4;"/>
   </g>
   <g id="patch_44">
    <path clip-path="url(#p970ab4bc81)" d="M 189.780779 1806.14794 
L 192.04318 1806.14794 
L 192.04318 142.88701 
L 189.780779 142.88701 
z
" style="fill:#1f77b4;"/>
   </g>
   <g id="patch_45">
    <path clip-path="url(#p970ab4bc81)" d="M 192.60878 1806.14794 
L 194.871182 1806.14794 
L 194.871182 142.002006 
L 192.60878 142.002006 
z
" style="fill:#1f77b4;"/>
   </g>
   <g id="patch_46">
    <path clip-path="url(#p970ab4bc81)" d="M 195.436782 1806.14794 
L 197.699183 1806.14794 
L 197.699183 143.028448 
L 195.436782 143.028448 
z
" style="fill:#1f77b4;"/>
   </g>
   <g id="patch_47">
    <path clip-path="url(#p970ab4bc81)" d="M 198.264783 1806.14794 
L 200.527184 1806.14794 
L 200.527184 141.457841 
L 198.264783 141.457841 
z
" style="fill:#1f77b4;"/>
   </g>
   <g id="patch_48">
    <path clip-path="url(#p970ab4bc81)" d="M 201.092784 1806.14794 
L 203.355185 1806.14794 
L 203.355185 141.453244 
L 201.092784 141.453244 
z
" style="fill:#1f77b4;"/>
   </g>
   <g id="patch_49">
    <path clip-path="url(#p970ab4bc81)" d="M 203.920786 1806.14794 
L 206.183187 1806.14794 
L 206.183187 142.20808 
L 203.920786 142.20808 
z
" style="fill:#1f77b4;"/>
   </g>
   <g id="patch_50">
    <path clip-path="url(#p970ab4bc81)" d="M 206.748787 1806.14794 
L 209.011188 1806.14794 
L 209.011188 142.388227 
L 206.748787 142.388227 
z
" style="fill:#1f77b4;"/>
   </g>
   <g id="patch_51">
    <path clip-path="url(#p970ab4bc81)" d="M 209.576788 1806.14794 
L 211.839189 1806.14794 
L 211.839189 141.198599 
L 209.576788 141.198599 
z
" style="fill:#1f77b4;"/>
   </g>
   <g id="patch_52">
    <path clip-path="url(#p970ab4bc81)" d="M 212.404789 1806.14794 
L 214.66719 1806.14794 
L 214.66719 139.336065 
L 212.404789 139.336065 
z
" style="fill:#1f77b4;"/>
   </g>
   <g id="patch_53">
    <path clip-path="url(#p970ab4bc81)" d="M 215.232791 1806.14794 
L 217.495192 1806.14794 
L 217.495192 142.189281 
L 215.232791 142.189281 
z
" style="fill:#1f77b4;"/>
   </g>
   <g id="patch_54">
    <path clip-path="url(#p970ab4bc81)" d="M 218.060792 1806.14794 
L 220.323193 1806.14794 
L 220.323193 141.493496 
L 218.060792 141.493496 
z
" style="fill:#1f77b4;"/>
   </g>
   <g id="patch_55">
    <path clip-path="url(#p970ab4bc81)" d="M 220.888793 1806.14794 
L 223.151194 1806.14794 
L 223.151194 142.770151 
L 220.888793 142.770151 
z
" style="fill:#1f77b4;"/>
   </g>
   <g id="patch_56">
    <path clip-path="url(#p970ab4bc81)" d="M 223.716794 1806.14794 
L 225.979195 1806.14794 
L 225.979195 137.397841 
L 223.716794 137.397841 
z
" style="fill:#1f77b4;"/>
   </g>
   <g id="patch_57">
    <path clip-path="url(#p970ab4bc81)" d="M 226.544796 1806.14794 
L 228.807197 1806.14794 
L 228.807197 140.521164 
L 226.544796 140.521164 
z
" style="fill:#1f77b4;"/>
   </g>
   <g id="patch_58">
    <path clip-path="url(#p970ab4bc81)" d="M 229.372797 1806.14794 
L 231.635198 1806.14794 
L 231.635198 140.052016 
L 229.372797 140.052016 
z
" style="fill:#1f77b4;"/>
   </g>
   <g id="patch_59">
    <path clip-path="url(#p970ab4bc81)" d="M 232.200798 1806.14794 
L 234.463199 1806.14794 
L 234.463199 142.595024 
L 232.200798 142.595024 
z
" style="fill:#1f77b4;"/>
   </g>
   <g id="patch_60">
    <path clip-path="url(#p970ab4bc81)" d="M 235.028799 1806.14794 
L 237.291201 1806.14794 
L 237.291201 140.24269 
L 235.028799 140.24269 
z
" style="fill:#1f77b4;"/>
   </g>
   <g id="patch_61">
    <path clip-path="url(#p970ab4bc81)" d="M 237.856801 1806.14794 
L 240.119202 1806.14794 
L 240.119202 139.62233 
L 237.856801 139.62233 
z
" style="fill:#1f77b4;"/>
   </g>
   <g id="patch_62">
    <path clip-path="url(#p970ab4bc81)" d="M 240.684802 1806.14794 
L 242.947203 1806.14794 
L 242.947203 142.583218 
L 240.684802 142.583218 
z
" style="fill:#1f77b4;"/>
   </g>
   <g id="patch_63">
    <path clip-path="url(#p970ab4bc81)" d="M 243.512803 1806.14794 
L 245.775204 1806.14794 
L 245.775204 135.572254 
L 243.512803 135.572254 
z
" style="fill:#1f77b4;"/>
   </g>
   <g id="patch_64">
    <path clip-path="url(#p970ab4bc81)" d="M 246.340805 1806.14794 
L 248.603206 1806.14794 
L 248.603206 134.010598 
L 246.340805 134.010598 
z
" style="fill:#1f77b4;"/>
   </g>
   <g id="patch_65">
    <path clip-path="url(#p970ab4bc81)" d="M 249.168806 1806.14794 
L 251.431207 1806.14794 
L 251.431207 140.753752 
L 249.168806 140.753752 
z
" style="fill:#1f77b4;"/>
   </g>
   <g id="patch_66">
    <path clip-path="url(#p970ab4bc81)" d="M 251.996807 1806.14794 
L 254.259208 1806.14794 
L 254.259208 144.249328 
L 251.996807 144.249328 
z
" style="fill:#1f77b4;"/>
   </g>
   <g id="patch_67">
    <path clip-path="url(#p970ab4bc81)" d="M 254.824808 1806.14794 
L 257.087209 1806.14794 
L 257.087209 139.956434 
L 254.824808 139.956434 
z
" style="fill:#1f77b4;"/>
   </g>
   <g id="patch_68">
    <path clip-path="url(#p970ab4bc81)" d="M 257.65281 1806.14794 
L 259.915211 1806.14794 
L 259.915211 138.431436 
L 257.65281 138.431436 
z
" style="fill:#1f77b4;"/>
   </g>
   <g id="patch_69">
    <path clip-path="url(#p970ab4bc81)" d="M 260.480811 1806.14794 
L 262.743212 1806.14794 
L 262.743212 132.80466 
L 260.480811 132.80466 
z
" style="fill:#1f77b4;"/>
   </g>
   <g id="patch_70">
    <path clip-path="url(#p970ab4bc81)" d="M 263.308812 1806.14794 
L 265.571213 1806.14794 
L 265.571213 136.874827 
L 263.308812 136.874827 
z
" style="fill:#1f77b4;"/>
   </g>
   <g id="patch_71">
    <path clip-path="url(#p970ab4bc81)" d="M 266.136813 1806.14794 
L 268.399214 1806.14794 
L 268.399214 137.010584 
L 266.136813 137.010584 
z
" style="fill:#1f77b4;"/>
   </g>
   <g id="patch_72">
    <path clip-path="url(#p970ab4bc81)" d="M 268.964815 1806.14794 
L 271.227216 1806.14794 
L 271.227216 140.132085 
L 268.964815 140.132085 
z
" style="fill:#1f77b4;"/>
   </g>
   <g id="patch_73">
    <path clip-path="url(#p970ab4bc81)" d="M 271.792816 1806.14794 
L 274.055217 1806.14794 
L 274.055217 140.069341 
L 271.792816 140.069341 
z
" style="fill:#1f77b4;"/>
   </g>
   <g id="patch_74">
    <path clip-path="url(#p970ab4bc81)" d="M 274.620817 1806.14794 
L 276.883218 1806.14794 
L 276.883218 139.629727 
L 274.620817 139.629727 
z
" style="fill:#1f77b4;"/>
   </g>
   <g id="patch_75">
    <path clip-path="url(#p970ab4bc81)" d="M 277.448818 1806.14794 
L 279.71122 1806.14794 
L 279.71122 143.147238 
L 277.448818 143.147238 
z
" style="fill:#1f77b4;"/>
   </g>
   <g id="patch_76">
    <path clip-path="url(#p970ab4bc81)" d="M 280.27682 1806.14794 
L 282.539221 1806.14794 
L 282.539221 144.44279 
L 280.27682 144.44279 
z
" style="fill:#1f77b4;"/>
   </g>
   <g id="patch_77">
    <path clip-path="url(#p970ab4bc81)" d="M 283.104821 1806.14794 
L 285.367222 1806.14794 
L 285.367222 144.985784 
L 283.104821 144.985784 
z
" style="fill:#1f77b4;"/>
   </g>
   <g id="patch_78">
    <path clip-path="url(#p970ab4bc81)" d="M 285.932822 1806.14794 
L 288.195223 1806.14794 
L 288.195223 139.694191 
L 285.932822 139.694191 
z
" style="fill:#1f77b4;"/>
   </g>
   <g id="patch_79">
    <path clip-path="url(#p970ab4bc81)" d="M 288.760824 1806.14794 
L 291.023225 1806.14794 
L 291.023225 143.254723 
L 288.760824 143.254723 
z
" style="fill:#1f77b4;"/>
   </g>
   <g id="patch_80">
    <path clip-path="url(#p970ab4bc81)" d="M 291.588825 1806.14794 
L 293.851226 1806.14794 
L 293.851226 144.320669 
L 291.588825 144.320669 
z
" style="fill:#1f77b4;"/>
   </g>
   <g id="patch_81">
    <path clip-path="url(#p970ab4bc81)" d="M 294.416826 1806.14794 
L 296.679227 1806.14794 
L 296.679227 143.805505 
L 294.416826 143.805505 
z
" style="fill:#1f77b4;"/>
   </g>
   <g id="patch_82">
    <path clip-path="url(#p970ab4bc81)" d="M 297.244827 1806.14794 
L 299.507228 1806.14794 
L 299.507228 144.465905 
L 297.244827 144.465905 
z
" style="fill:#1f77b4;"/>
   </g>
   <g id="patch_83">
    <path clip-path="url(#p970ab4bc81)" d="M 300.072829 1806.14794 
L 302.33523 1806.14794 
L 302.33523 143.018159 
L 300.072829 143.018159 
z
" style="fill:#1f77b4;"/>
   </g>
   <g id="patch_84">
    <path clip-path="url(#p970ab4bc81)" d="M 302.90083 1806.14794 
L 305.163231 1806.14794 
L 305.163231 135.515806 
L 302.90083 135.515806 
z
" style="fill:#1f77b4;"/>
   </g>
   <g id="patch_85">
    <path clip-path="url(#p970ab4bc81)" d="M 305.728831 1806.14794 
L 307.991232 1806.14794 
L 307.991232 136.996775 
L 305.728831 136.996775 
z
" style="fill:#1f77b4;"/>
   </g>
   <g id="patch_86">
    <path clip-path="url(#p970ab4bc81)" d="M 308.556832 1806.14794 
L 310.819233 1806.14794 
L 310.819233 139.787636 
L 308.556832 139.787636 
z
" style="fill:#1f77b4;"/>
   </g>
   <g id="patch_87">
    <path clip-path="url(#p970ab4bc81)" d="M 311.384834 1806.14794 
L 313.647235 1806.14794 
L 313.647235 138.812211 
L 311.384834 138.812211 
z
" style="fill:#1f77b4;"/>
   </g>
   <g id="patch_88">
    <path clip-path="url(#p970ab4bc81)" d="M 314.212835 1806.14794 
L 316.475236 1806.14794 
L 316.475236 131.344966 
L 314.212835 131.344966 
z
" style="fill:#1f77b4;"/>
   </g>
   <g id="patch_89">
    <path clip-path="url(#p970ab4bc81)" d="M 317.040836 1806.14794 
L 319.303237 1806.14794 
L 319.303237 137.486018 
L 317.040836 137.486018 
z
" style="fill:#1f77b4;"/>
   </g>
   <g id="patch_90">
    <path clip-path="url(#p970ab4bc81)" d="M 319.868838 1806.14794 
L 322.131239 1806.14794 
L 322.131239 138.848399 
L 319.868838 138.848399 
z
" style="fill:#1f77b4;"/>
   </g>
   <g id="patch_91">
    <path clip-path="url(#p970ab4bc81)" d="M 322.696839 1806.14794 
L 324.95924 1806.14794 
L 324.95924 139.26846 
L 322.696839 139.26846 
z
" style="fill:#1f77b4;"/>
   </g>
   <g id="patch_92">
    <path clip-path="url(#p970ab4bc81)" d="M 325.52484 1806.14794 
L 327.787241 1806.14794 
L 327.787241 141.63188 
L 325.52484 141.63188 
z
" style="fill:#1f77b4;"/>
   </g>
   <g id="patch_93">
    <path clip-path="url(#p970ab4bc81)" d="M 328.352841 1806.14794 
L 330.615242 1806.14794 
L 330.615242 141.758077 
L 328.352841 141.758077 
z
" style="fill:#1f77b4;"/>
   </g>
   <g id="patch_94">
    <path clip-path="url(#p970ab4bc81)" d="M 331.180843 1806.14794 
L 333.443244 1806.14794 
L 333.443244 143.048757 
L 331.180843 143.048757 
z
" style="fill:#1f77b4;"/>
   </g>
   <g id="patch_95">
    <path clip-path="url(#p970ab4bc81)" d="M 334.008844 1806.14794 
L 336.271245 1806.14794 
L 336.271245 143.243726 
L 334.008844 143.243726 
z
" style="fill:#1f77b4;"/>
   </g>
   <g id="patch_96">
    <path clip-path="url(#p970ab4bc81)" d="M 336.836845 1806.14794 
L 339.099246 1806.14794 
L 339.099246 142.161866 
L 336.836845 142.161866 
z
" style="fill:#1f77b4;"/>
   </g>
   <g id="patch_97">
    <path clip-path="url(#p970ab4bc81)" d="M 339.664846 1806.14794 
L 341.927247 1806.14794 
L 341.927247 142.409479 
L 339.664846 142.409479 
z
" style="fill:#1f77b4;"/>
   </g>
   <g id="patch_98">
    <path clip-path="url(#p970ab4bc81)" d="M 342.492848 1806.14794 
L 344.755249 1806.14794 
L 344.755249 138.542397 
L 342.492848 138.542397 
z
" style="fill:#1f77b4;"/>
   </g>
   <g id="patch_99">
    <path clip-path="url(#p970ab4bc81)" d="M 345.320849 1806.14794 
L 347.58325 1806.14794 
L 347.58325 143.610529 
L 345.320849 143.610529 
z
" style="fill:#1f77b4;"/>
   </g>
   <g id="patch_100">
    <path clip-path="url(#p970ab4bc81)" d="M 348.14885 1806.14794 
L 350.411251 1806.14794 
L 350.411251 143.889745 
L 348.14885 143.889745 
z
" style="fill:#1f77b4;"/>
   </g>
   <g id="patch_101">
    <path clip-path="url(#p970ab4bc81)" d="M 350.976851 1806.14794 
L 353.239252 1806.14794 
L 353.239252 143.612925 
L 350.976851 143.612925 
z
" style="fill:#1f77b4;"/>
   </g>
   <g id="patch_102">
    <path clip-path="url(#p970ab4bc81)" d="M 353.804853 1806.14794 
L 356.067254 1806.14794 
L 356.067254 141.786467 
L 353.804853 141.786467 
z
" style="fill:#1f77b4;"/>
   </g>
   <g id="patch_103">
    <path clip-path="url(#p970ab4bc81)" d="M 356.632854 1806.14794 
L 358.895255 1806.14794 
L 358.895255 142.749123 
L 356.632854 142.749123 
z
" style="fill:#1f77b4;"/>
   </g>
   <g id="patch_104">
    <path clip-path="url(#p970ab4bc81)" d="M 359.460855 1806.14794 
L 361.723256 1806.14794 
L 361.723256 143.891392 
L 359.460855 143.891392 
z
" style="fill:#1f77b4;"/>
   </g>
   <g id="patch_105">
    <path clip-path="url(#p970ab4bc81)" d="M 362.288857 1806.14794 
L 364.551258 1806.14794 
L 364.551258 143.607444 
L 362.288857 143.607444 
z
" style="fill:#1f77b4;"/>
   </g>
   <g id="patch_106">
    <path clip-path="url(#p970ab4bc81)" d="M 365.116858 1806.14794 
L 367.379259 1806.14794 
L 367.379259 145.091888 
L 365.116858 145.091888 
z
" style="fill:#1f77b4;"/>
   </g>
   <g id="patch_107">
    <path clip-path="url(#p970ab4bc81)" d="M 367.944859 1806.14794 
L 370.20726 1806.14794 
L 370.20726 142.705576 
L 367.944859 142.705576 
z
" style="fill:#1f77b4;"/>
   </g>
   <g id="patch_108">
    <path clip-path="url(#p970ab4bc81)" d="M 370.77286 1806.14794 
L 373.035261 1806.14794 
L 373.035261 141.965447 
L 370.77286 141.965447 
z
" style="fill:#1f77b4;"/>
   </g>
   <g id="patch_109">
    <path clip-path="url(#p970ab4bc81)" d="M 373.600862 1806.14794 
L 375.863263 1806.14794 
L 375.863263 143.473615 
L 373.600862 143.473615 
z
" style="fill:#1f77b4;"/>
   </g>
   <g id="patch_110">
    <path clip-path="url(#p970ab4bc81)" d="M 376.428863 1806.14794 
L 378.691264 1806.14794 
L 378.691264 144.415725 
L 376.428863 144.415725 
z
" style="fill:#1f77b4;"/>
   </g>
   <g id="patch_111">
    <path clip-path="url(#p970ab4bc81)" d="M 379.256864 1806.14794 
L 381.519265 1806.14794 
L 381.519265 142.857366 
L 379.256864 142.857366 
z
" style="fill:#1f77b4;"/>
   </g>
   <g id="patch_112">
    <path clip-path="url(#p970ab4bc81)" d="M 382.084865 1806.14794 
L 384.347266 1806.14794 
L 384.347266 143.718289 
L 382.084865 143.718289 
z
" style="fill:#1f77b4;"/>
   </g>
   <g id="patch_113">
    <path clip-path="url(#p970ab4bc81)" d="M 384.912867 1806.14794 
L 387.175268 1806.14794 
L 387.175268 144.454228 
L 384.912867 144.454228 
z
" style="fill:#1f77b4;"/>
   </g>
   <g id="patch_114">
    <path clip-path="url(#p970ab4bc81)" d="M 387.740868 1806.14794 
L 390.003269 1806.14794 
L 390.003269 142.453291 
L 387.740868 142.453291 
z
" style="fill:#1f77b4;"/>
   </g>
   <g id="patch_115">
    <path clip-path="url(#p970ab4bc81)" d="M 390.568869 1806.14794 
L 392.83127 1806.14794 
L 392.83127 139.415328 
L 390.568869 139.415328 
z
" style="fill:#1f77b4;"/>
   </g>
   <g id="patch_116">
    <path clip-path="url(#p970ab4bc81)" d="M 393.39687 1806.14794 
L 395.659271 1806.14794 
L 395.659271 145.203141 
L 393.39687 145.203141 
z
" style="fill:#1f77b4;"/>
   </g>
   <g id="patch_117">
    <path clip-path="url(#p970ab4bc81)" d="M 396.224872 1806.14794 
L 398.487273 1806.14794 
L 398.487273 156.680882 
L 396.224872 156.680882 
z
" style="fill:#1f77b4;"/>
   </g>
   <g id="matplotlib.axis_1">
    <g id="xtick_1">
     <g id="line2d_1">
      <defs>
       <path d="M 0 0 
L 0 3.5 
" id="m093407cba6" style="stroke:#000000;stroke-width:0.8;"/>
      </defs>
      <g>
       <use style="stroke:#000000;stroke-width:0.8;" x="74.963928" xlink:href="#m093407cba6" y="162.432"/>
      </g>
     </g>
     <g id="text_1">
      <!-- 0 -->
      <defs>
       <path d="M 31.78125 66.40625 
Q 24.171875 66.40625 20.328125 58.90625 
Q 16.5 51.421875 16.5 36.375 
Q 16.5 21.390625 20.328125 13.890625 
Q 24.171875 6.390625 31.78125 6.390625 
Q 39.453125 6.390625 43.28125 13.890625 
Q 47.125 21.390625 47.125 36.375 
Q 47.125 51.421875 43.28125 58.90625 
Q 39.453125 66.40625 31.78125 66.40625 
z
M 31.78125 74.21875 
Q 44.046875 74.21875 50.515625 64.515625 
Q 56.984375 54.828125 56.984375 36.375 
Q 56.984375 17.96875 50.515625 8.265625 
Q 44.046875 -1.421875 31.78125 -1.421875 
Q 19.53125 -1.421875 13.0625 8.265625 
Q 6.59375 17.96875 6.59375 36.375 
Q 6.59375 54.828125 13.0625 64.515625 
Q 19.53125 74.21875 31.78125 74.21875 
z
" id="DejaVuSans-30"/>
      </defs>
      <g transform="translate(71.782678 177.030437)scale(0.1 -0.1)">
       <use xlink:href="#DejaVuSans-30"/>
      </g>
     </g>
    </g>
    <g id="xtick_2">
     <g id="line2d_2">
      <g>
       <use style="stroke:#000000;stroke-width:0.8;" x="131.523953" xlink:href="#m093407cba6" y="162.432"/>
      </g>
     </g>
     <g id="text_2">
      <!-- 20 -->
      <defs>
       <path d="M 19.1875 8.296875 
L 53.609375 8.296875 
L 53.609375 0 
L 7.328125 0 
L 7.328125 8.296875 
Q 12.9375 14.109375 22.625 23.890625 
Q 32.328125 33.6875 34.8125 36.53125 
Q 39.546875 41.84375 41.421875 45.53125 
Q 43.3125 49.21875 43.3125 52.78125 
Q 43.3125 58.59375 39.234375 62.25 
Q 35.15625 65.921875 28.609375 65.921875 
Q 23.96875 65.921875 18.8125 64.3125 
Q 13.671875 62.703125 7.8125 59.421875 
L 7.8125 69.390625 
Q 13.765625 71.78125 18.9375 73 
Q 24.125 74.21875 28.421875 74.21875 
Q 39.75 74.21875 46.484375 68.546875 
Q 53.21875 62.890625 53.21875 53.421875 
Q 53.21875 48.921875 51.53125 44.890625 
Q 49.859375 40.875 45.40625 35.40625 
Q 44.1875 33.984375 37.640625 27.21875 
Q 31.109375 20.453125 19.1875 8.296875 
z
" id="DejaVuSans-32"/>
      </defs>
      <g transform="translate(125.161453 177.030437)scale(0.1 -0.1)">
       <use xlink:href="#DejaVuSans-32"/>
       <use x="63.623047" xlink:href="#DejaVuSans-30"/>
      </g>
     </g>
    </g>
    <g id="xtick_3">
     <g id="line2d_3">
      <g>
       <use style="stroke:#000000;stroke-width:0.8;" x="188.083978" xlink:href="#m093407cba6" y="162.432"/>
      </g>
     </g>
     <g id="text_3">
      <!-- 40 -->
      <defs>
       <path d="M 37.796875 64.3125 
L 12.890625 25.390625 
L 37.796875 25.390625 
z
M 35.203125 72.90625 
L 47.609375 72.90625 
L 47.609375 25.390625 
L 58.015625 25.390625 
L 58.015625 17.1875 
L 47.609375 17.1875 
L 47.609375 0 
L 37.796875 0 
L 37.796875 17.1875 
L 4.890625 17.1875 
L 4.890625 26.703125 
z
" id="DejaVuSans-34"/>
      </defs>
      <g transform="translate(181.721478 177.030437)scale(0.1 -0.1)">
       <use xlink:href="#DejaVuSans-34"/>
       <use x="63.623047" xlink:href="#DejaVuSans-30"/>
      </g>
     </g>
    </g>
    <g id="xtick_4">
     <g id="line2d_4">
      <g>
       <use style="stroke:#000000;stroke-width:0.8;" x="244.644004" xlink:href="#m093407cba6" y="162.432"/>
      </g>
     </g>
     <g id="text_4">
      <!-- 60 -->
      <defs>
       <path d="M 33.015625 40.375 
Q 26.375 40.375 22.484375 35.828125 
Q 18.609375 31.296875 18.609375 23.390625 
Q 18.609375 15.53125 22.484375 10.953125 
Q 26.375 6.390625 33.015625 6.390625 
Q 39.65625 6.390625 43.53125 10.953125 
Q 47.40625 15.53125 47.40625 23.390625 
Q 47.40625 31.296875 43.53125 35.828125 
Q 39.65625 40.375 33.015625 40.375 
z
M 52.59375 71.296875 
L 52.59375 62.3125 
Q 48.875 64.0625 45.09375 64.984375 
Q 41.3125 65.921875 37.59375 65.921875 
Q 27.828125 65.921875 22.671875 59.328125 
Q 17.53125 52.734375 16.796875 39.40625 
Q 19.671875 43.65625 24.015625 45.921875 
Q 28.375 48.1875 33.59375 48.1875 
Q 44.578125 48.1875 50.953125 41.515625 
Q 57.328125 34.859375 57.328125 23.390625 
Q 57.328125 12.15625 50.6875 5.359375 
Q 44.046875 -1.421875 33.015625 -1.421875 
Q 20.359375 -1.421875 13.671875 8.265625 
Q 6.984375 17.96875 6.984375 36.375 
Q 6.984375 53.65625 15.1875 63.9375 
Q 23.390625 74.21875 37.203125 74.21875 
Q 40.921875 74.21875 44.703125 73.484375 
Q 48.484375 72.75 52.59375 71.296875 
z
" id="DejaVuSans-36"/>
      </defs>
      <g transform="translate(238.281504 177.030437)scale(0.1 -0.1)">
       <use xlink:href="#DejaVuSans-36"/>
       <use x="63.623047" xlink:href="#DejaVuSans-30"/>
      </g>
     </g>
    </g>
    <g id="xtick_5">
     <g id="line2d_5">
      <g>
       <use style="stroke:#000000;stroke-width:0.8;" x="301.204029" xlink:href="#m093407cba6" y="162.432"/>
      </g>
     </g>
     <g id="text_5">
      <!-- 80 -->
      <defs>
       <path d="M 31.78125 34.625 
Q 24.75 34.625 20.71875 30.859375 
Q 16.703125 27.09375 16.703125 20.515625 
Q 16.703125 13.921875 20.71875 10.15625 
Q 24.75 6.390625 31.78125 6.390625 
Q 38.8125 6.390625 42.859375 10.171875 
Q 46.921875 13.96875 46.921875 20.515625 
Q 46.921875 27.09375 42.890625 30.859375 
Q 38.875 34.625 31.78125 34.625 
z
M 21.921875 38.8125 
Q 15.578125 40.375 12.03125 44.71875 
Q 8.5 49.078125 8.5 55.328125 
Q 8.5 64.0625 14.71875 69.140625 
Q 20.953125 74.21875 31.78125 74.21875 
Q 42.671875 74.21875 48.875 69.140625 
Q 55.078125 64.0625 55.078125 55.328125 
Q 55.078125 49.078125 51.53125 44.71875 
Q 48 40.375 41.703125 38.8125 
Q 48.828125 37.15625 52.796875 32.3125 
Q 56.78125 27.484375 56.78125 20.515625 
Q 56.78125 9.90625 50.3125 4.234375 
Q 43.84375 -1.421875 31.78125 -1.421875 
Q 19.734375 -1.421875 13.25 4.234375 
Q 6.78125 9.90625 6.78125 20.515625 
Q 6.78125 27.484375 10.78125 32.3125 
Q 14.796875 37.15625 21.921875 38.8125 
z
M 18.3125 54.390625 
Q 18.3125 48.734375 21.84375 45.5625 
Q 25.390625 42.390625 31.78125 42.390625 
Q 38.140625 42.390625 41.71875 45.5625 
Q 45.3125 48.734375 45.3125 54.390625 
Q 45.3125 60.0625 41.71875 63.234375 
Q 38.140625 66.40625 31.78125 66.40625 
Q 25.390625 66.40625 21.84375 63.234375 
Q 18.3125 60.0625 18.3125 54.390625 
z
" id="DejaVuSans-38"/>
      </defs>
      <g transform="translate(294.841529 177.030437)scale(0.1 -0.1)">
       <use xlink:href="#DejaVuSans-38"/>
       <use x="63.623047" xlink:href="#DejaVuSans-30"/>
      </g>
     </g>
    </g>
    <g id="xtick_6">
     <g id="line2d_6">
      <g>
       <use style="stroke:#000000;stroke-width:0.8;" x="357.764054" xlink:href="#m093407cba6" y="162.432"/>
      </g>
     </g>
     <g id="text_6">
      <!-- 100 -->
      <defs>
       <path d="M 12.40625 8.296875 
L 28.515625 8.296875 
L 28.515625 63.921875 
L 10.984375 60.40625 
L 10.984375 69.390625 
L 28.421875 72.90625 
L 38.28125 72.90625 
L 38.28125 8.296875 
L 54.390625 8.296875 
L 54.390625 0 
L 12.40625 0 
z
" id="DejaVuSans-31"/>
      </defs>
      <g transform="translate(348.220304 177.030437)scale(0.1 -0.1)">
       <use xlink:href="#DejaVuSans-31"/>
       <use x="63.623047" xlink:href="#DejaVuSans-30"/>
       <use x="127.246094" xlink:href="#DejaVuSans-30"/>
      </g>
     </g>
    </g>
    <g id="xtick_7">
     <g id="line2d_7">
      <g>
       <use style="stroke:#000000;stroke-width:0.8;" x="414.32408" xlink:href="#m093407cba6" y="162.432"/>
      </g>
     </g>
     <g id="text_7">
      <!-- 120 -->
      <g transform="translate(404.78033 177.030437)scale(0.1 -0.1)">
       <use xlink:href="#DejaVuSans-31"/>
       <use x="63.623047" xlink:href="#DejaVuSans-32"/>
       <use x="127.246094" xlink:href="#DejaVuSans-30"/>
      </g>
     </g>
    </g>
    <g id="text_8">
     <!-- Obs -->
     <defs>
      <path d="M 39.40625 66.21875 
Q 28.65625 66.21875 22.328125 58.203125 
Q 16.015625 50.203125 16.015625 36.375 
Q 16.015625 22.609375 22.328125 14.59375 
Q 28.65625 6.59375 39.40625 6.59375 
Q 50.140625 6.59375 56.421875 14.59375 
Q 62.703125 22.609375 62.703125 36.375 
Q 62.703125 50.203125 56.421875 58.203125 
Q 50.140625 66.21875 39.40625 66.21875 
z
M 39.40625 74.21875 
Q 54.734375 74.21875 63.90625 63.9375 
Q 73.09375 53.65625 73.09375 36.375 
Q 73.09375 19.140625 63.90625 8.859375 
Q 54.734375 -1.421875 39.40625 -1.421875 
Q 24.03125 -1.421875 14.8125 8.828125 
Q 5.609375 19.09375 5.609375 36.375 
Q 5.609375 53.65625 14.8125 63.9375 
Q 24.03125 74.21875 39.40625 74.21875 
z
" id="DejaVuSans-4f"/>
      <path d="M 48.6875 27.296875 
Q 48.6875 37.203125 44.609375 42.84375 
Q 40.53125 48.484375 33.40625 48.484375 
Q 26.265625 48.484375 22.1875 42.84375 
Q 18.109375 37.203125 18.109375 27.296875 
Q 18.109375 17.390625 22.1875 11.75 
Q 26.265625 6.109375 33.40625 6.109375 
Q 40.53125 6.109375 44.609375 11.75 
Q 48.6875 17.390625 48.6875 27.296875 
z
M 18.109375 46.390625 
Q 20.953125 51.265625 25.265625 53.625 
Q 29.59375 56 35.59375 56 
Q 45.5625 56 51.78125 48.09375 
Q 58.015625 40.1875 58.015625 27.296875 
Q 58.015625 14.40625 51.78125 6.484375 
Q 45.5625 -1.421875 35.59375 -1.421875 
Q 29.59375 -1.421875 25.265625 0.953125 
Q 20.953125 3.328125 18.109375 8.203125 
L 18.109375 0 
L 9.078125 0 
L 9.078125 75.984375 
L 18.109375 75.984375 
z
" id="DejaVuSans-62"/>
      <path d="M 44.28125 53.078125 
L 44.28125 44.578125 
Q 40.484375 46.53125 36.375 47.5 
Q 32.28125 48.484375 27.875 48.484375 
Q 21.1875 48.484375 17.84375 46.4375 
Q 14.5 44.390625 14.5 40.28125 
Q 14.5 37.15625 16.890625 35.375 
Q 19.28125 33.59375 26.515625 31.984375 
L 29.59375 31.296875 
Q 39.15625 29.25 43.1875 25.515625 
Q 47.21875 21.78125 47.21875 15.09375 
Q 47.21875 7.46875 41.1875 3.015625 
Q 35.15625 -1.421875 24.609375 -1.421875 
Q 20.21875 -1.421875 15.453125 -0.5625 
Q 10.6875 0.296875 5.421875 2 
L 5.421875 11.28125 
Q 10.40625 8.6875 15.234375 7.390625 
Q 20.0625 6.109375 24.8125 6.109375 
Q 31.15625 6.109375 34.5625 8.28125 
Q 37.984375 10.453125 37.984375 14.40625 
Q 37.984375 18.0625 35.515625 20.015625 
Q 33.0625 21.96875 24.703125 23.78125 
L 21.578125 24.515625 
Q 13.234375 26.265625 9.515625 29.90625 
Q 5.8125 33.546875 5.8125 39.890625 
Q 5.8125 47.609375 11.28125 51.796875 
Q 16.75 56 26.8125 56 
Q 31.78125 56 36.171875 55.265625 
Q 40.578125 54.546875 44.28125 53.078125 
z
" id="DejaVuSans-73"/>
     </defs>
     <g transform="translate(226.445156 190.708562)scale(0.1 -0.1)">
      <use xlink:href="#DejaVuSans-4f"/>
      <use x="78.710938" xlink:href="#DejaVuSans-62"/>
      <use x="142.1875" xlink:href="#DejaVuSans-73"/>
     </g>
    </g>
   </g>
   <g id="matplotlib.axis_2">
    <g id="ytick_1">
     <g id="line2d_8">
      <defs>
       <path d="M 0 0 
L -3.5 0 
" id="mfff47ca395" style="stroke:#000000;stroke-width:0.8;"/>
      </defs>
      <g>
       <use style="stroke:#000000;stroke-width:0.8;" x="57.6" xlink:href="#mfff47ca395" y="142.296395"/>
      </g>
     </g>
     <g id="text_9">
      <!-- $\mathdefault{10^{1}}$ -->
      <g transform="translate(33 146.095614)scale(0.1 -0.1)">
       <use transform="translate(0 0.684375)" xlink:href="#DejaVuSans-31"/>
       <use transform="translate(63.623047 0.684375)" xlink:href="#DejaVuSans-30"/>
       <use transform="translate(128.203125 38.965625)scale(0.7)" xlink:href="#DejaVuSans-31"/>
      </g>
     </g>
    </g>
    <g id="ytick_2">
     <g id="line2d_9">
      <g>
       <use style="stroke:#000000;stroke-width:0.8;" x="57.6" xlink:href="#mfff47ca395" y="120.185411"/>
      </g>
     </g>
     <g id="text_10">
      <!-- $\mathdefault{10^{5}}$ -->
      <defs>
       <path d="M 10.796875 72.90625 
L 49.515625 72.90625 
L 49.515625 64.59375 
L 19.828125 64.59375 
L 19.828125 46.734375 
Q 21.96875 47.46875 24.109375 47.828125 
Q 26.265625 48.1875 28.421875 48.1875 
Q 40.625 48.1875 47.75 41.5 
Q 54.890625 34.8125 54.890625 23.390625 
Q 54.890625 11.625 47.5625 5.09375 
Q 40.234375 -1.421875 26.90625 -1.421875 
Q 22.3125 -1.421875 17.546875 -0.640625 
Q 12.796875 0.140625 7.71875 1.703125 
L 7.71875 11.625 
Q 12.109375 9.234375 16.796875 8.0625 
Q 21.484375 6.890625 26.703125 6.890625 
Q 35.15625 6.890625 40.078125 11.328125 
Q 45.015625 15.765625 45.015625 23.390625 
Q 45.015625 31 40.078125 35.4375 
Q 35.15625 39.890625 26.703125 39.890625 
Q 22.75 39.890625 18.8125 39.015625 
Q 14.890625 38.140625 10.796875 36.28125 
z
" id="DejaVuSans-35"/>
      </defs>
      <g transform="translate(33 123.98463)scale(0.1 -0.1)">
       <use transform="translate(0 0.684375)" xlink:href="#DejaVuSans-31"/>
       <use transform="translate(63.623047 0.684375)" xlink:href="#DejaVuSans-30"/>
       <use transform="translate(128.203125 38.965625)scale(0.7)" xlink:href="#DejaVuSans-35"/>
      </g>
     </g>
    </g>
    <g id="ytick_3">
     <g id="line2d_10">
      <g>
       <use style="stroke:#000000;stroke-width:0.8;" x="57.6" xlink:href="#mfff47ca395" y="98.074427"/>
      </g>
     </g>
     <g id="text_11">
      <!-- $\mathdefault{10^{9}}$ -->
      <defs>
       <path d="M 10.984375 1.515625 
L 10.984375 10.5 
Q 14.703125 8.734375 18.5 7.8125 
Q 22.3125 6.890625 25.984375 6.890625 
Q 35.75 6.890625 40.890625 13.453125 
Q 46.046875 20.015625 46.78125 33.40625 
Q 43.953125 29.203125 39.59375 26.953125 
Q 35.25 24.703125 29.984375 24.703125 
Q 19.046875 24.703125 12.671875 31.3125 
Q 6.296875 37.9375 6.296875 49.421875 
Q 6.296875 60.640625 12.9375 67.421875 
Q 19.578125 74.21875 30.609375 74.21875 
Q 43.265625 74.21875 49.921875 64.515625 
Q 56.59375 54.828125 56.59375 36.375 
Q 56.59375 19.140625 48.40625 8.859375 
Q 40.234375 -1.421875 26.421875 -1.421875 
Q 22.703125 -1.421875 18.890625 -0.6875 
Q 15.09375 0.046875 10.984375 1.515625 
z
M 30.609375 32.421875 
Q 37.25 32.421875 41.125 36.953125 
Q 45.015625 41.5 45.015625 49.421875 
Q 45.015625 57.28125 41.125 61.84375 
Q 37.25 66.40625 30.609375 66.40625 
Q 23.96875 66.40625 20.09375 61.84375 
Q 16.21875 57.28125 16.21875 49.421875 
Q 16.21875 41.5 20.09375 36.953125 
Q 23.96875 32.421875 30.609375 32.421875 
z
" id="DejaVuSans-39"/>
      </defs>
      <g transform="translate(33 101.873646)scale(0.1 -0.1)">
       <use transform="translate(0 0.765625)" xlink:href="#DejaVuSans-31"/>
       <use transform="translate(63.623047 0.765625)" xlink:href="#DejaVuSans-30"/>
       <use transform="translate(128.203125 39.046875)scale(0.7)" xlink:href="#DejaVuSans-39"/>
      </g>
     </g>
    </g>
    <g id="ytick_4">
     <g id="line2d_11">
      <g>
       <use style="stroke:#000000;stroke-width:0.8;" x="57.6" xlink:href="#mfff47ca395" y="75.963443"/>
      </g>
     </g>
     <g id="text_12">
      <!-- $\mathdefault{10^{13}}$ -->
      <defs>
       <path d="M 40.578125 39.3125 
Q 47.65625 37.796875 51.625 33 
Q 55.609375 28.21875 55.609375 21.1875 
Q 55.609375 10.40625 48.1875 4.484375 
Q 40.765625 -1.421875 27.09375 -1.421875 
Q 22.515625 -1.421875 17.65625 -0.515625 
Q 12.796875 0.390625 7.625 2.203125 
L 7.625 11.71875 
Q 11.71875 9.328125 16.59375 8.109375 
Q 21.484375 6.890625 26.8125 6.890625 
Q 36.078125 6.890625 40.9375 10.546875 
Q 45.796875 14.203125 45.796875 21.1875 
Q 45.796875 27.640625 41.28125 31.265625 
Q 36.765625 34.90625 28.71875 34.90625 
L 20.21875 34.90625 
L 20.21875 43.015625 
L 29.109375 43.015625 
Q 36.375 43.015625 40.234375 45.921875 
Q 44.09375 48.828125 44.09375 54.296875 
Q 44.09375 59.90625 40.109375 62.90625 
Q 36.140625 65.921875 28.71875 65.921875 
Q 24.65625 65.921875 20.015625 65.03125 
Q 15.375 64.15625 9.8125 62.3125 
L 9.8125 71.09375 
Q 15.4375 72.65625 20.34375 73.4375 
Q 25.25 74.21875 29.59375 74.21875 
Q 40.828125 74.21875 47.359375 69.109375 
Q 53.90625 64.015625 53.90625 55.328125 
Q 53.90625 49.265625 50.4375 45.09375 
Q 46.96875 40.921875 40.578125 39.3125 
z
" id="DejaVuSans-33"/>
      </defs>
      <g transform="translate(28.5 79.762662)scale(0.1 -0.1)">
       <use transform="translate(0 0.765625)" xlink:href="#DejaVuSans-31"/>
       <use transform="translate(63.623047 0.765625)" xlink:href="#DejaVuSans-30"/>
       <use transform="translate(128.203125 39.046875)scale(0.7)" xlink:href="#DejaVuSans-31"/>
       <use transform="translate(172.739258 39.046875)scale(0.7)" xlink:href="#DejaVuSans-33"/>
      </g>
     </g>
    </g>
    <g id="ytick_5">
     <g id="line2d_12">
      <g>
       <use style="stroke:#000000;stroke-width:0.8;" x="57.6" xlink:href="#mfff47ca395" y="53.852459"/>
      </g>
     </g>
     <g id="text_13">
      <!-- $\mathdefault{10^{17}}$ -->
      <defs>
       <path d="M 8.203125 72.90625 
L 55.078125 72.90625 
L 55.078125 68.703125 
L 28.609375 0 
L 18.3125 0 
L 43.21875 64.59375 
L 8.203125 64.59375 
z
" id="DejaVuSans-37"/>
      </defs>
      <g transform="translate(28.5 57.651678)scale(0.1 -0.1)">
       <use transform="translate(0 0.684375)" xlink:href="#DejaVuSans-31"/>
       <use transform="translate(63.623047 0.684375)" xlink:href="#DejaVuSans-30"/>
       <use transform="translate(128.203125 38.965625)scale(0.7)" xlink:href="#DejaVuSans-31"/>
       <use transform="translate(172.739258 38.965625)scale(0.7)" xlink:href="#DejaVuSans-37"/>
      </g>
     </g>
    </g>
    <g id="text_14">
     <!-- $Q_{1,1}$ -->
     <defs>
      <path d="M 36.078125 -1.3125 
Q 35.546875 -1.375 34.953125 -1.390625 
Q 34.375 -1.421875 33.203125 -1.421875 
Q 19.53125 -1.421875 11.8125 6.421875 
Q 4.109375 14.265625 4.109375 28.078125 
Q 4.109375 36.234375 7.0625 44.4375 
Q 10.015625 52.640625 15.28125 59.1875 
Q 21.390625 66.703125 29.03125 70.453125 
Q 36.671875 74.21875 45.90625 74.21875 
Q 59.28125 74.21875 66.984375 66.328125 
Q 74.703125 58.453125 74.703125 44.828125 
Q 74.703125 30.125 66.640625 17.921875 
Q 58.59375 5.71875 45.609375 0.6875 
L 55.515625 -12.890625 
L 44.484375 -12.890625 
z
M 45.609375 66.21875 
Q 37.5 66.21875 31.296875 62.28125 
Q 25.09375 58.34375 20.515625 50.296875 
Q 17.578125 45.171875 16.03125 39.40625 
Q 14.5 33.640625 14.5 27.78125 
Q 14.5 17.625 19.359375 12.109375 
Q 24.21875 6.59375 33.109375 6.59375 
Q 41.109375 6.59375 47.375 10.5625 
Q 53.65625 14.546875 58.109375 22.40625 
Q 61.078125 27.6875 62.640625 33.46875 
Q 64.203125 39.265625 64.203125 45.015625 
Q 64.203125 55.125 59.3125 60.671875 
Q 54.4375 66.21875 45.609375 66.21875 
z
" id="DejaVuSans-Oblique-51"/>
      <path d="M 11.71875 12.40625 
L 22.015625 12.40625 
L 22.015625 4 
L 14.015625 -11.625 
L 7.71875 -11.625 
L 11.71875 4 
z
" id="DejaVuSans-2c"/>
     </defs>
     <g transform="translate(20.5 118.512)rotate(-90)scale(0.16 -0.16)">
      <use transform="translate(0 0.78125)" xlink:href="#DejaVuSans-Oblique-51"/>
      <use transform="translate(78.710938 -15.625)scale(0.7)" xlink:href="#DejaVuSans-31"/>
      <use transform="translate(123.24707 -15.625)scale(0.7)" xlink:href="#DejaVuSans-2c"/>
      <use transform="translate(159.135742 -15.625)scale(0.7)" xlink:href="#DejaVuSans-31"/>
     </g>
    </g>
   </g>
   <g id="line2d_13">
    <path clip-path="url(#p970ab4bc81)" style="fill:none;stroke:#ff0000;stroke-dasharray:5.55,2.4;stroke-dashoffset:0;stroke-width:1.5;"/>
   </g>
   <g id="patch_118">
    <path d="M 57.6 162.432 
L 57.6 41.472 
" style="fill:none;stroke:#000000;stroke-linecap:square;stroke-linejoin:miter;stroke-width:0.8;"/>
   </g>
   <g id="patch_119">
    <path d="M 414.72 162.432 
L 414.72 41.472 
" style="fill:none;stroke:#000000;stroke-linecap:square;stroke-linejoin:miter;stroke-width:0.8;"/>
   </g>
   <g id="patch_120">
    <path d="M 57.6 162.432 
L 414.72 162.432 
" style="fill:none;stroke:#000000;stroke-linecap:square;stroke-linejoin:miter;stroke-width:0.8;"/>
   </g>
   <g id="patch_121">
    <path d="M 57.6 41.472 
L 414.72 41.472 
" style="fill:none;stroke:#000000;stroke-linecap:square;stroke-linejoin:miter;stroke-width:0.8;"/>
   </g>
  </g>
  <g id="axes_2">
   <g id="patch_122">
    <path d="M 57.6 307.584 
L 414.72 307.584 
L 414.72 186.624 
L 57.6 186.624 
z
" style="fill:#ffffff;"/>
   </g>
   <g id="patch_123">
    <path clip-path="url(#p2ea532bbd1)" d="M 73.832727 2201.532125 
L 76.095128 2201.532125 
L 76.095128 263.406067 
L 73.832727 263.406067 
z
" style="fill:#1f77b4;"/>
   </g>
   <g id="patch_124">
    <path clip-path="url(#p2ea532bbd1)" d="M 76.660729 2201.532125 
L 78.92313 2201.532125 
L 78.92313 198.546664 
L 76.660729 198.546664 
z
" style="fill:#1f77b4;"/>
   </g>
   <g id="patch_125">
    <path clip-path="url(#p2ea532bbd1)" d="M 79.48873 2201.532125 
L 81.751131 2201.532125 
L 81.751131 199.314723 
L 79.48873 199.314723 
z
" style="fill:#1f77b4;"/>
   </g>
   <g id="patch_126">
    <path clip-path="url(#p2ea532bbd1)" d="M 82.316731 2201.532125 
L 84.579132 2201.532125 
L 84.579132 198.067442 
L 82.316731 198.067442 
z
" style="fill:#1f77b4;"/>
   </g>
   <g id="patch_127">
    <path clip-path="url(#p2ea532bbd1)" d="M 85.144732 2201.532125 
L 87.407133 2201.532125 
L 87.407133 210.17255 
L 85.144732 210.17255 
z
" style="fill:#1f77b4;"/>
   </g>
   <g id="patch_128">
    <path clip-path="url(#p2ea532bbd1)" d="M 87.972734 2201.532125 
L 90.235135 2201.532125 
L 90.235135 301.795288 
L 87.972734 301.795288 
z
" style="fill:#1f77b4;"/>
   </g>
   <g id="patch_129">
    <path clip-path="url(#p2ea532bbd1)" d="M 90.800735 2201.532125 
L 93.063136 2201.532125 
L 93.063136 301.795288 
L 90.800735 301.795288 
z
" style="fill:#1f77b4;"/>
   </g>
   <g id="patch_130">
    <path clip-path="url(#p2ea532bbd1)" d="M 93.628736 2201.532125 
L 95.891137 2201.532125 
L 95.891137 266.82475 
L 93.628736 266.82475 
z
" style="fill:#1f77b4;"/>
   </g>
   <g id="patch_131">
    <path clip-path="url(#p2ea532bbd1)" d="M 96.456737 2201.532125 
L 98.719138 2201.532125 
L 98.719138 209.064226 
L 96.456737 209.064226 
z
" style="fill:#1f77b4;"/>
   </g>
   <g id="patch_132">
    <path clip-path="url(#p2ea532bbd1)" d="M 99.284739 2201.532125 
L 101.54714 2201.532125 
L 101.54714 301.795288 
L 99.284739 301.795288 
z
" style="fill:#1f77b4;"/>
   </g>
   <g id="patch_133">
    <path clip-path="url(#p2ea532bbd1)" d="M 102.11274 2201.532125 
L 104.375141 2201.532125 
L 104.375141 257.957154 
L 102.11274 257.957154 
z
" style="fill:#1f77b4;"/>
   </g>
   <g id="patch_134">
    <path clip-path="url(#p2ea532bbd1)" d="M 104.940741 2201.532125 
L 107.203142 2201.532125 
L 107.203142 192.122182 
L 104.940741 192.122182 
z
" style="fill:#1f77b4;"/>
   </g>
   <g id="patch_135">
    <path clip-path="url(#p2ea532bbd1)" d="M 107.768742 2201.532125 
L 110.031143 2201.532125 
L 110.031143 258.995065 
L 107.768742 258.995065 
z
" style="fill:#1f77b4;"/>
   </g>
   <g id="patch_136">
    <path clip-path="url(#p2ea532bbd1)" d="M 110.596744 2201.532125 
L 112.859145 2201.532125 
L 112.859145 194.282272 
L 110.596744 194.282272 
z
" style="fill:#1f77b4;"/>
   </g>
   <g id="patch_137">
    <path clip-path="url(#p2ea532bbd1)" d="M 113.424745 2201.532125 
L 115.687146 2201.532125 
L 115.687146 198.894234 
L 113.424745 198.894234 
z
" style="fill:#1f77b4;"/>
   </g>
   <g id="patch_138">
    <path clip-path="url(#p2ea532bbd1)" d="M 116.252746 2201.532125 
L 118.515147 2201.532125 
L 118.515147 205.534974 
L 116.252746 205.534974 
z
" style="fill:#1f77b4;"/>
   </g>
   <g id="patch_139">
    <path clip-path="url(#p2ea532bbd1)" d="M 119.080748 2201.532125 
L 121.343149 2201.532125 
L 121.343149 199.577878 
L 119.080748 199.577878 
z
" style="fill:#1f77b4;"/>
   </g>
   <g id="patch_140">
    <path clip-path="url(#p2ea532bbd1)" d="M 121.908749 2201.532125 
L 124.17115 2201.532125 
L 124.17115 205.632152 
L 121.908749 205.632152 
z
" style="fill:#1f77b4;"/>
   </g>
   <g id="patch_141">
    <path clip-path="url(#p2ea532bbd1)" d="M 124.73675 2201.532125 
L 126.999151 2201.532125 
L 126.999151 203.01435 
L 124.73675 203.01435 
z
" style="fill:#1f77b4;"/>
   </g>
   <g id="patch_142">
    <path clip-path="url(#p2ea532bbd1)" d="M 127.564751 2201.532125 
L 129.827152 2201.532125 
L 129.827152 207.285302 
L 127.564751 207.285302 
z
" style="fill:#1f77b4;"/>
   </g>
   <g id="patch_143">
    <path clip-path="url(#p2ea532bbd1)" d="M 130.392753 2201.532125 
L 132.655154 2201.532125 
L 132.655154 205.780734 
L 130.392753 205.780734 
z
" style="fill:#1f77b4;"/>
   </g>
   <g id="patch_144">
    <path clip-path="url(#p2ea532bbd1)" d="M 133.220754 2201.532125 
L 135.483155 2201.532125 
L 135.483155 209.100085 
L 133.220754 209.100085 
z
" style="fill:#1f77b4;"/>
   </g>
   <g id="patch_145">
    <path clip-path="url(#p2ea532bbd1)" d="M 136.048755 2201.532125 
L 138.311156 2201.532125 
L 138.311156 209.159308 
L 136.048755 209.159308 
z
" style="fill:#1f77b4;"/>
   </g>
   <g id="patch_146">
    <path clip-path="url(#p2ea532bbd1)" d="M 138.876756 2201.532125 
L 141.139157 2201.532125 
L 141.139157 209.119062 
L 138.876756 209.119062 
z
" style="fill:#1f77b4;"/>
   </g>
   <g id="patch_147">
    <path clip-path="url(#p2ea532bbd1)" d="M 141.704758 2201.532125 
L 143.967159 2201.532125 
L 143.967159 209.180865 
L 141.704758 209.180865 
z
" style="fill:#1f77b4;"/>
   </g>
   <g id="patch_148">
    <path clip-path="url(#p2ea532bbd1)" d="M 144.532759 2201.532125 
L 146.79516 2201.532125 
L 146.79516 204.997598 
L 144.532759 204.997598 
z
" style="fill:#1f77b4;"/>
   </g>
   <g id="patch_149">
    <path clip-path="url(#p2ea532bbd1)" d="M 147.36076 2201.532125 
L 149.623161 2201.532125 
L 149.623161 200.477562 
L 147.36076 200.477562 
z
" style="fill:#1f77b4;"/>
   </g>
   <g id="patch_150">
    <path clip-path="url(#p2ea532bbd1)" d="M 150.188761 2201.532125 
L 152.451162 2201.532125 
L 152.451162 208.169981 
L 150.188761 208.169981 
z
" style="fill:#1f77b4;"/>
   </g>
   <g id="patch_151">
    <path clip-path="url(#p2ea532bbd1)" d="M 153.016763 2201.532125 
L 155.279164 2201.532125 
L 155.279164 206.576695 
L 153.016763 206.576695 
z
" style="fill:#1f77b4;"/>
   </g>
   <g id="patch_152">
    <path clip-path="url(#p2ea532bbd1)" d="M 155.844764 2201.532125 
L 158.107165 2201.532125 
L 158.107165 296.346872 
L 155.844764 296.346872 
z
" style="fill:#1f77b4;"/>
   </g>
   <g id="patch_153">
    <path clip-path="url(#p2ea532bbd1)" d="M 158.672765 2201.532125 
L 160.935166 2201.532125 
L 160.935166 295.681869 
L 158.672765 295.681869 
z
" style="fill:#1f77b4;"/>
   </g>
   <g id="patch_154">
    <path clip-path="url(#p2ea532bbd1)" d="M 161.500767 2201.532125 
L 163.763168 2201.532125 
L 163.763168 295.258492 
L 161.500767 295.258492 
z
" style="fill:#1f77b4;"/>
   </g>
   <g id="patch_155">
    <path clip-path="url(#p2ea532bbd1)" d="M 164.328768 2201.532125 
L 166.591169 2201.532125 
L 166.591169 297.333138 
L 164.328768 297.333138 
z
" style="fill:#1f77b4;"/>
   </g>
   <g id="patch_156">
    <path clip-path="url(#p2ea532bbd1)" d="M 167.156769 2201.532125 
L 169.41917 2201.532125 
L 169.41917 296.057707 
L 167.156769 296.057707 
z
" style="fill:#1f77b4;"/>
   </g>
   <g id="patch_157">
    <path clip-path="url(#p2ea532bbd1)" d="M 169.98477 2201.532125 
L 172.247171 2201.532125 
L 172.247171 295.673729 
L 169.98477 295.673729 
z
" style="fill:#1f77b4;"/>
   </g>
   <g id="patch_158">
    <path clip-path="url(#p2ea532bbd1)" d="M 172.812772 2201.532125 
L 175.075173 2201.532125 
L 175.075173 295.603713 
L 172.812772 295.603713 
z
" style="fill:#1f77b4;"/>
   </g>
   <g id="patch_159">
    <path clip-path="url(#p2ea532bbd1)" d="M 175.640773 2201.532125 
L 177.903174 2201.532125 
L 177.903174 296.994627 
L 175.640773 296.994627 
z
" style="fill:#1f77b4;"/>
   </g>
   <g id="patch_160">
    <path clip-path="url(#p2ea532bbd1)" d="M 178.468774 2201.532125 
L 180.731175 2201.532125 
L 180.731175 296.070191 
L 178.468774 296.070191 
z
" style="fill:#1f77b4;"/>
   </g>
   <g id="patch_161">
    <path clip-path="url(#p2ea532bbd1)" d="M 181.296775 2201.532125 
L 183.559176 2201.532125 
L 183.559176 296.167384 
L 181.296775 296.167384 
z
" style="fill:#1f77b4;"/>
   </g>
   <g id="patch_162">
    <path clip-path="url(#p2ea532bbd1)" d="M 184.124777 2201.532125 
L 186.387178 2201.532125 
L 186.387178 296.616126 
L 184.124777 296.616126 
z
" style="fill:#1f77b4;"/>
   </g>
   <g id="patch_163">
    <path clip-path="url(#p2ea532bbd1)" d="M 186.952778 2201.532125 
L 189.215179 2201.532125 
L 189.215179 296.007093 
L 186.952778 296.007093 
z
" style="fill:#1f77b4;"/>
   </g>
   <g id="patch_164">
    <path clip-path="url(#p2ea532bbd1)" d="M 189.780779 2201.532125 
L 192.04318 2201.532125 
L 192.04318 295.424801 
L 189.780779 295.424801 
z
" style="fill:#1f77b4;"/>
   </g>
   <g id="patch_165">
    <path clip-path="url(#p2ea532bbd1)" d="M 192.60878 2201.532125 
L 194.871182 2201.532125 
L 194.871182 295.631032 
L 192.60878 295.631032 
z
" style="fill:#1f77b4;"/>
   </g>
   <g id="patch_166">
    <path clip-path="url(#p2ea532bbd1)" d="M 195.436782 2201.532125 
L 197.699183 2201.532125 
L 197.699183 296.190184 
L 195.436782 296.190184 
z
" style="fill:#1f77b4;"/>
   </g>
   <g id="patch_167">
    <path clip-path="url(#p2ea532bbd1)" d="M 198.264783 2201.532125 
L 200.527184 2201.532125 
L 200.527184 295.81329 
L 198.264783 295.81329 
z
" style="fill:#1f77b4;"/>
   </g>
   <g id="patch_168">
    <path clip-path="url(#p2ea532bbd1)" d="M 201.092784 2201.532125 
L 203.355185 2201.532125 
L 203.355185 295.483439 
L 201.092784 295.483439 
z
" style="fill:#1f77b4;"/>
   </g>
   <g id="patch_169">
    <path clip-path="url(#p2ea532bbd1)" d="M 203.920786 2201.532125 
L 206.183187 2201.532125 
L 206.183187 295.338409 
L 203.920786 295.338409 
z
" style="fill:#1f77b4;"/>
   </g>
   <g id="patch_170">
    <path clip-path="url(#p2ea532bbd1)" d="M 206.748787 2201.532125 
L 209.011188 2201.532125 
L 209.011188 295.693215 
L 206.748787 295.693215 
z
" style="fill:#1f77b4;"/>
   </g>
   <g id="patch_171">
    <path clip-path="url(#p2ea532bbd1)" d="M 209.576788 2201.532125 
L 211.839189 2201.532125 
L 211.839189 295.664732 
L 209.576788 295.664732 
z
" style="fill:#1f77b4;"/>
   </g>
   <g id="patch_172">
    <path clip-path="url(#p2ea532bbd1)" d="M 212.404789 2201.532125 
L 214.66719 2201.532125 
L 214.66719 292.246124 
L 212.404789 292.246124 
z
" style="fill:#1f77b4;"/>
   </g>
   <g id="patch_173">
    <path clip-path="url(#p2ea532bbd1)" d="M 215.232791 2201.532125 
L 217.495192 2201.532125 
L 217.495192 296.989225 
L 215.232791 296.989225 
z
" style="fill:#1f77b4;"/>
   </g>
   <g id="patch_174">
    <path clip-path="url(#p2ea532bbd1)" d="M 218.060792 2201.532125 
L 220.323193 2201.532125 
L 220.323193 296.640569 
L 218.060792 296.640569 
z
" style="fill:#1f77b4;"/>
   </g>
   <g id="patch_175">
    <path clip-path="url(#p2ea532bbd1)" d="M 220.888793 2201.532125 
L 223.151194 2201.532125 
L 223.151194 297.179775 
L 220.888793 297.179775 
z
" style="fill:#1f77b4;"/>
   </g>
   <g id="patch_176">
    <path clip-path="url(#p2ea532bbd1)" d="M 223.716794 2201.532125 
L 225.979195 2201.532125 
L 225.979195 292.568276 
L 223.716794 292.568276 
z
" style="fill:#1f77b4;"/>
   </g>
   <g id="patch_177">
    <path clip-path="url(#p2ea532bbd1)" d="M 226.544796 2201.532125 
L 228.807197 2201.532125 
L 228.807197 297.817335 
L 226.544796 297.817335 
z
" style="fill:#1f77b4;"/>
   </g>
   <g id="patch_178">
    <path clip-path="url(#p2ea532bbd1)" d="M 229.372797 2201.532125 
L 231.635198 2201.532125 
L 231.635198 297.355068 
L 229.372797 297.355068 
z
" style="fill:#1f77b4;"/>
   </g>
   <g id="patch_179">
    <path clip-path="url(#p2ea532bbd1)" d="M 232.200798 2201.532125 
L 234.463199 2201.532125 
L 234.463199 296.254808 
L 232.200798 296.254808 
z
" style="fill:#1f77b4;"/>
   </g>
   <g id="patch_180">
    <path clip-path="url(#p2ea532bbd1)" d="M 235.028799 2201.532125 
L 237.291201 2201.532125 
L 237.291201 297.117747 
L 235.028799 297.117747 
z
" style="fill:#1f77b4;"/>
   </g>
   <g id="patch_181">
    <path clip-path="url(#p2ea532bbd1)" d="M 237.856801 2201.532125 
L 240.119202 2201.532125 
L 240.119202 297.038318 
L 237.856801 297.038318 
z
" style="fill:#1f77b4;"/>
   </g>
   <g id="patch_182">
    <path clip-path="url(#p2ea532bbd1)" d="M 240.684802 2201.532125 
L 242.947203 2201.532125 
L 242.947203 289.555596 
L 240.684802 289.555596 
z
" style="fill:#1f77b4;"/>
   </g>
   <g id="patch_183">
    <path clip-path="url(#p2ea532bbd1)" d="M 243.512803 2201.532125 
L 245.775204 2201.532125 
L 245.775204 290.75714 
L 243.512803 290.75714 
z
" style="fill:#1f77b4;"/>
   </g>
   <g id="patch_184">
    <path clip-path="url(#p2ea532bbd1)" d="M 246.340805 2201.532125 
L 248.603206 2201.532125 
L 248.603206 292.299587 
L 246.340805 292.299587 
z
" style="fill:#1f77b4;"/>
   </g>
   <g id="patch_185">
    <path clip-path="url(#p2ea532bbd1)" d="M 249.168806 2201.532125 
L 251.431207 2201.532125 
L 251.431207 289.658279 
L 249.168806 289.658279 
z
" style="fill:#1f77b4;"/>
   </g>
   <g id="patch_186">
    <path clip-path="url(#p2ea532bbd1)" d="M 251.996807 2201.532125 
L 254.259208 2201.532125 
L 254.259208 287.451456 
L 251.996807 287.451456 
z
" style="fill:#1f77b4;"/>
   </g>
   <g id="patch_187">
    <path clip-path="url(#p2ea532bbd1)" d="M 254.824808 2201.532125 
L 257.087209 2201.532125 
L 257.087209 287.463941 
L 254.824808 287.463941 
z
" style="fill:#1f77b4;"/>
   </g>
   <g id="patch_188">
    <path clip-path="url(#p2ea532bbd1)" d="M 257.65281 2201.532125 
L 259.915211 2201.532125 
L 259.915211 289.927333 
L 257.65281 289.927333 
z
" style="fill:#1f77b4;"/>
   </g>
   <g id="patch_189">
    <path clip-path="url(#p2ea532bbd1)" d="M 260.480811 2201.532125 
L 262.743212 2201.532125 
L 262.743212 283.190422 
L 260.480811 283.190422 
z
" style="fill:#1f77b4;"/>
   </g>
   <g id="patch_190">
    <path clip-path="url(#p2ea532bbd1)" d="M 263.308812 2201.532125 
L 265.571213 2201.532125 
L 265.571213 287.276468 
L 263.308812 287.276468 
z
" style="fill:#1f77b4;"/>
   </g>
   <g id="patch_191">
    <path clip-path="url(#p2ea532bbd1)" d="M 266.136813 2201.532125 
L 268.399214 2201.532125 
L 268.399214 287.051536 
L 266.136813 287.051536 
z
" style="fill:#1f77b4;"/>
   </g>
   <g id="patch_192">
    <path clip-path="url(#p2ea532bbd1)" d="M 268.964815 2201.532125 
L 271.227216 2201.532125 
L 271.227216 286.452269 
L 268.964815 286.452269 
z
" style="fill:#1f77b4;"/>
   </g>
   <g id="patch_193">
    <path clip-path="url(#p2ea532bbd1)" d="M 271.792816 2201.532125 
L 274.055217 2201.532125 
L 274.055217 287.937486 
L 271.792816 287.937486 
z
" style="fill:#1f77b4;"/>
   </g>
   <g id="patch_194">
    <path clip-path="url(#p2ea532bbd1)" d="M 274.620817 2201.532125 
L 276.883218 2201.532125 
L 276.883218 288.090816 
L 274.620817 288.090816 
z
" style="fill:#1f77b4;"/>
   </g>
   <g id="patch_195">
    <path clip-path="url(#p2ea532bbd1)" d="M 277.448818 2201.532125 
L 279.71122 2201.532125 
L 279.71122 287.845873 
L 277.448818 287.845873 
z
" style="fill:#1f77b4;"/>
   </g>
   <g id="patch_196">
    <path clip-path="url(#p2ea532bbd1)" d="M 280.27682 2201.532125 
L 282.539221 2201.532125 
L 282.539221 288.768459 
L 280.27682 288.768459 
z
" style="fill:#1f77b4;"/>
   </g>
   <g id="patch_197">
    <path clip-path="url(#p2ea532bbd1)" d="M 283.104821 2201.532125 
L 285.367222 2201.532125 
L 285.367222 289.30936 
L 283.104821 289.30936 
z
" style="fill:#1f77b4;"/>
   </g>
   <g id="patch_198">
    <path clip-path="url(#p2ea532bbd1)" d="M 285.932822 2201.532125 
L 288.195223 2201.532125 
L 288.195223 286.216109 
L 285.932822 286.216109 
z
" style="fill:#1f77b4;"/>
   </g>
   <g id="patch_199">
    <path clip-path="url(#p2ea532bbd1)" d="M 288.760824 2201.532125 
L 291.023225 2201.532125 
L 291.023225 289.297091 
L 288.760824 289.297091 
z
" style="fill:#1f77b4;"/>
   </g>
   <g id="patch_200">
    <path clip-path="url(#p2ea532bbd1)" d="M 291.588825 2201.532125 
L 293.851226 2201.532125 
L 293.851226 288.763878 
L 291.588825 288.763878 
z
" style="fill:#1f77b4;"/>
   </g>
   <g id="patch_201">
    <path clip-path="url(#p2ea532bbd1)" d="M 294.416826 2201.532125 
L 296.679227 2201.532125 
L 296.679227 287.334571 
L 294.416826 287.334571 
z
" style="fill:#1f77b4;"/>
   </g>
   <g id="patch_202">
    <path clip-path="url(#p2ea532bbd1)" d="M 297.244827 2201.532125 
L 299.507228 2201.532125 
L 299.507228 288.695922 
L 297.244827 288.695922 
z
" style="fill:#1f77b4;"/>
   </g>
   <g id="patch_203">
    <path clip-path="url(#p2ea532bbd1)" d="M 300.072829 2201.532125 
L 302.33523 2201.532125 
L 302.33523 289.603163 
L 300.072829 289.603163 
z
" style="fill:#1f77b4;"/>
   </g>
   <g id="patch_204">
    <path clip-path="url(#p2ea532bbd1)" d="M 302.90083 2201.532125 
L 305.163231 2201.532125 
L 305.163231 284.432152 
L 302.90083 284.432152 
z
" style="fill:#1f77b4;"/>
   </g>
   <g id="patch_205">
    <path clip-path="url(#p2ea532bbd1)" d="M 305.728831 2201.532125 
L 307.991232 2201.532125 
L 307.991232 288.000689 
L 305.728831 288.000689 
z
" style="fill:#1f77b4;"/>
   </g>
   <g id="patch_206">
    <path clip-path="url(#p2ea532bbd1)" d="M 308.556832 2201.532125 
L 310.819233 2201.532125 
L 310.819233 287.692026 
L 308.556832 287.692026 
z
" style="fill:#1f77b4;"/>
   </g>
   <g id="patch_207">
    <path clip-path="url(#p2ea532bbd1)" d="M 311.384834 2201.532125 
L 313.647235 2201.532125 
L 313.647235 286.375615 
L 311.384834 286.375615 
z
" style="fill:#1f77b4;"/>
   </g>
   <g id="patch_208">
    <path clip-path="url(#p2ea532bbd1)" d="M 314.212835 2201.532125 
L 316.475236 2201.532125 
L 316.475236 286.555159 
L 314.212835 286.555159 
z
" style="fill:#1f77b4;"/>
   </g>
   <g id="patch_209">
    <path clip-path="url(#p2ea532bbd1)" d="M 317.040836 2201.532125 
L 319.303237 2201.532125 
L 319.303237 289.276208 
L 317.040836 289.276208 
z
" style="fill:#1f77b4;"/>
   </g>
   <g id="patch_210">
    <path clip-path="url(#p2ea532bbd1)" d="M 319.868838 2201.532125 
L 322.131239 2201.532125 
L 322.131239 286.760288 
L 319.868838 286.760288 
z
" style="fill:#1f77b4;"/>
   </g>
   <g id="patch_211">
    <path clip-path="url(#p2ea532bbd1)" d="M 322.696839 2201.532125 
L 324.95924 2201.532125 
L 324.95924 289.151264 
L 322.696839 289.151264 
z
" style="fill:#1f77b4;"/>
   </g>
   <g id="patch_212">
    <path clip-path="url(#p2ea532bbd1)" d="M 325.52484 2201.532125 
L 327.787241 2201.532125 
L 327.787241 300.329704 
L 325.52484 300.329704 
z
" style="fill:#1f77b4;"/>
   </g>
   <g id="patch_213">
    <path clip-path="url(#p2ea532bbd1)" d="M 328.352841 2201.532125 
L 330.615242 2201.532125 
L 330.615242 296.611786 
L 328.352841 296.611786 
z
" style="fill:#1f77b4;"/>
   </g>
   <g id="patch_214">
    <path clip-path="url(#p2ea532bbd1)" d="M 331.180843 2201.532125 
L 333.443244 2201.532125 
L 333.443244 297.772427 
L 331.180843 297.772427 
z
" style="fill:#1f77b4;"/>
   </g>
   <g id="patch_215">
    <path clip-path="url(#p2ea532bbd1)" d="M 334.008844 2201.532125 
L 336.271245 2201.532125 
L 336.271245 296.498731 
L 334.008844 296.498731 
z
" style="fill:#1f77b4;"/>
   </g>
   <g id="patch_216">
    <path clip-path="url(#p2ea532bbd1)" d="M 336.836845 2201.532125 
L 339.099246 2201.532125 
L 339.099246 297.242632 
L 336.836845 297.242632 
z
" style="fill:#1f77b4;"/>
   </g>
   <g id="patch_217">
    <path clip-path="url(#p2ea532bbd1)" d="M 339.664846 2201.532125 
L 341.927247 2201.532125 
L 341.927247 295.63914 
L 339.664846 295.63914 
z
" style="fill:#1f77b4;"/>
   </g>
   <g id="patch_218">
    <path clip-path="url(#p2ea532bbd1)" d="M 342.492848 2201.532125 
L 344.755249 2201.532125 
L 344.755249 295.505795 
L 342.492848 295.505795 
z
" style="fill:#1f77b4;"/>
   </g>
   <g id="patch_219">
    <path clip-path="url(#p2ea532bbd1)" d="M 345.320849 2201.532125 
L 347.58325 2201.532125 
L 347.58325 294.576774 
L 345.320849 294.576774 
z
" style="fill:#1f77b4;"/>
   </g>
   <g id="patch_220">
    <path clip-path="url(#p2ea532bbd1)" d="M 348.14885 2201.532125 
L 350.411251 2201.532125 
L 350.411251 295.953766 
L 348.14885 295.953766 
z
" style="fill:#1f77b4;"/>
   </g>
   <g id="patch_221">
    <path clip-path="url(#p2ea532bbd1)" d="M 350.976851 2201.532125 
L 353.239252 2201.532125 
L 353.239252 295.219856 
L 350.976851 295.219856 
z
" style="fill:#1f77b4;"/>
   </g>
   <g id="patch_222">
    <path clip-path="url(#p2ea532bbd1)" d="M 353.804853 2201.532125 
L 356.067254 2201.532125 
L 356.067254 296.62363 
L 353.804853 296.62363 
z
" style="fill:#1f77b4;"/>
   </g>
   <g id="patch_223">
    <path clip-path="url(#p2ea532bbd1)" d="M 356.632854 2201.532125 
L 358.895255 2201.532125 
L 358.895255 294.528188 
L 356.632854 294.528188 
z
" style="fill:#1f77b4;"/>
   </g>
   <g id="patch_224">
    <path clip-path="url(#p2ea532bbd1)" d="M 359.460855 2201.532125 
L 361.723256 2201.532125 
L 361.723256 295.136852 
L 359.460855 295.136852 
z
" style="fill:#1f77b4;"/>
   </g>
   <g id="patch_225">
    <path clip-path="url(#p2ea532bbd1)" d="M 362.288857 2201.532125 
L 364.551258 2201.532125 
L 364.551258 295.210233 
L 362.288857 295.210233 
z
" style="fill:#1f77b4;"/>
   </g>
   <g id="patch_226">
    <path clip-path="url(#p2ea532bbd1)" d="M 365.116858 2201.532125 
L 367.379259 2201.532125 
L 367.379259 295.391243 
L 365.116858 295.391243 
z
" style="fill:#1f77b4;"/>
   </g>
   <g id="patch_227">
    <path clip-path="url(#p2ea532bbd1)" d="M 367.944859 2201.532125 
L 370.20726 2201.532125 
L 370.20726 295.810145 
L 367.944859 295.810145 
z
" style="fill:#1f77b4;"/>
   </g>
   <g id="patch_228">
    <path clip-path="url(#p2ea532bbd1)" d="M 370.77286 2201.532125 
L 373.035261 2201.532125 
L 373.035261 295.948669 
L 370.77286 295.948669 
z
" style="fill:#1f77b4;"/>
   </g>
   <g id="patch_229">
    <path clip-path="url(#p2ea532bbd1)" d="M 373.600862 2201.532125 
L 375.863263 2201.532125 
L 375.863263 295.215088 
L 373.600862 295.215088 
z
" style="fill:#1f77b4;"/>
   </g>
   <g id="patch_230">
    <path clip-path="url(#p2ea532bbd1)" d="M 376.428863 2201.532125 
L 378.691264 2201.532125 
L 378.691264 296.24588 
L 376.428863 296.24588 
z
" style="fill:#1f77b4;"/>
   </g>
   <g id="patch_231">
    <path clip-path="url(#p2ea532bbd1)" d="M 379.256864 2201.532125 
L 381.519265 2201.532125 
L 381.519265 293.647709 
L 379.256864 293.647709 
z
" style="fill:#1f77b4;"/>
   </g>
   <g id="patch_232">
    <path clip-path="url(#p2ea532bbd1)" d="M 382.084865 2201.532125 
L 384.347266 2201.532125 
L 384.347266 295.101584 
L 382.084865 295.101584 
z
" style="fill:#1f77b4;"/>
   </g>
   <g id="patch_233">
    <path clip-path="url(#p2ea532bbd1)" d="M 384.912867 2201.532125 
L 387.175268 2201.532125 
L 387.175268 295.398147 
L 384.912867 295.398147 
z
" style="fill:#1f77b4;"/>
   </g>
   <g id="patch_234">
    <path clip-path="url(#p2ea532bbd1)" d="M 387.740868 2201.532125 
L 390.003269 2201.532125 
L 390.003269 296.794929 
L 387.740868 296.794929 
z
" style="fill:#1f77b4;"/>
   </g>
   <g id="patch_235">
    <path clip-path="url(#p2ea532bbd1)" d="M 390.568869 2201.532125 
L 392.83127 2201.532125 
L 392.83127 295.477597 
L 390.568869 295.477597 
z
" style="fill:#1f77b4;"/>
   </g>
   <g id="patch_236">
    <path clip-path="url(#p2ea532bbd1)" d="M 393.39687 2201.532125 
L 395.659271 2201.532125 
L 395.659271 295.726 
L 393.39687 295.726 
z
" style="fill:#1f77b4;"/>
   </g>
   <g id="patch_237">
    <path clip-path="url(#p2ea532bbd1)" d="M 396.224872 2201.532125 
L 398.487273 2201.532125 
L 398.487273 2201.532125 
L 396.224872 2201.532125 
z
" style="fill:#1f77b4;"/>
   </g>
   <g id="patch_238">
    <path clip-path="url(#p2ea532bbd1)" d="M 73.832727 2201.532125 
L 76.095128 2201.532125 
L 76.095128 263.406067 
L 73.832727 263.406067 
z
" style="fill:#ff7f0e;"/>
   </g>
   <g id="patch_239">
    <path clip-path="url(#p2ea532bbd1)" d="M 76.660729 2201.532125 
L 78.92313 2201.532125 
L 78.92313 198.546664 
L 76.660729 198.546664 
z
" style="fill:#ff7f0e;"/>
   </g>
   <g id="patch_240">
    <path clip-path="url(#p2ea532bbd1)" d="M 79.48873 2201.532125 
L 81.751131 2201.532125 
L 81.751131 199.314723 
L 79.48873 199.314723 
z
" style="fill:#ff7f0e;"/>
   </g>
   <g id="patch_241">
    <path clip-path="url(#p2ea532bbd1)" d="M 82.316731 2201.532125 
L 84.579132 2201.532125 
L 84.579132 198.067442 
L 82.316731 198.067442 
z
" style="fill:#ff7f0e;"/>
   </g>
   <g id="patch_242">
    <path clip-path="url(#p2ea532bbd1)" d="M 85.144732 2201.532125 
L 87.407133 2201.532125 
L 87.407133 210.17255 
L 85.144732 210.17255 
z
" style="fill:#ff7f0e;"/>
   </g>
   <g id="patch_243">
    <path clip-path="url(#p2ea532bbd1)" d="M 87.972734 2201.532125 
L 90.235135 2201.532125 
L 90.235135 301.795288 
L 87.972734 301.795288 
z
" style="fill:#ff7f0e;"/>
   </g>
   <g id="patch_244">
    <path clip-path="url(#p2ea532bbd1)" d="M 90.800735 2201.532125 
L 93.063136 2201.532125 
L 93.063136 301.795288 
L 90.800735 301.795288 
z
" style="fill:#ff7f0e;"/>
   </g>
   <g id="patch_245">
    <path clip-path="url(#p2ea532bbd1)" d="M 93.628736 2201.532125 
L 95.891137 2201.532125 
L 95.891137 266.82475 
L 93.628736 266.82475 
z
" style="fill:#ff7f0e;"/>
   </g>
   <g id="patch_246">
    <path clip-path="url(#p2ea532bbd1)" d="M 96.456737 2201.532125 
L 98.719138 2201.532125 
L 98.719138 209.064226 
L 96.456737 209.064226 
z
" style="fill:#ff7f0e;"/>
   </g>
   <g id="patch_247">
    <path clip-path="url(#p2ea532bbd1)" d="M 99.284739 2201.532125 
L 101.54714 2201.532125 
L 101.54714 301.795288 
L 99.284739 301.795288 
z
" style="fill:#ff7f0e;"/>
   </g>
   <g id="patch_248">
    <path clip-path="url(#p2ea532bbd1)" d="M 102.11274 2201.532125 
L 104.375141 2201.532125 
L 104.375141 257.957154 
L 102.11274 257.957154 
z
" style="fill:#ff7f0e;"/>
   </g>
   <g id="patch_249">
    <path clip-path="url(#p2ea532bbd1)" d="M 104.940741 2201.532125 
L 107.203142 2201.532125 
L 107.203142 192.122182 
L 104.940741 192.122182 
z
" style="fill:#ff7f0e;"/>
   </g>
   <g id="patch_250">
    <path clip-path="url(#p2ea532bbd1)" d="M 107.768742 2201.532125 
L 110.031143 2201.532125 
L 110.031143 258.995065 
L 107.768742 258.995065 
z
" style="fill:#ff7f0e;"/>
   </g>
   <g id="patch_251">
    <path clip-path="url(#p2ea532bbd1)" d="M 110.596744 2201.532125 
L 112.859145 2201.532125 
L 112.859145 194.282272 
L 110.596744 194.282272 
z
" style="fill:#ff7f0e;"/>
   </g>
   <g id="patch_252">
    <path clip-path="url(#p2ea532bbd1)" d="M 113.424745 2201.532125 
L 115.687146 2201.532125 
L 115.687146 198.894234 
L 113.424745 198.894234 
z
" style="fill:#ff7f0e;"/>
   </g>
   <g id="patch_253">
    <path clip-path="url(#p2ea532bbd1)" d="M 116.252746 2201.532125 
L 118.515147 2201.532125 
L 118.515147 205.534974 
L 116.252746 205.534974 
z
" style="fill:#ff7f0e;"/>
   </g>
   <g id="patch_254">
    <path clip-path="url(#p2ea532bbd1)" d="M 119.080748 2201.532125 
L 121.343149 2201.532125 
L 121.343149 199.577878 
L 119.080748 199.577878 
z
" style="fill:#ff7f0e;"/>
   </g>
   <g id="patch_255">
    <path clip-path="url(#p2ea532bbd1)" d="M 121.908749 2201.532125 
L 124.17115 2201.532125 
L 124.17115 205.632152 
L 121.908749 205.632152 
z
" style="fill:#ff7f0e;"/>
   </g>
   <g id="patch_256">
    <path clip-path="url(#p2ea532bbd1)" d="M 124.73675 2201.532125 
L 126.999151 2201.532125 
L 126.999151 203.01435 
L 124.73675 203.01435 
z
" style="fill:#ff7f0e;"/>
   </g>
   <g id="patch_257">
    <path clip-path="url(#p2ea532bbd1)" d="M 127.564751 2201.532125 
L 129.827152 2201.532125 
L 129.827152 207.285302 
L 127.564751 207.285302 
z
" style="fill:#ff7f0e;"/>
   </g>
   <g id="patch_258">
    <path clip-path="url(#p2ea532bbd1)" d="M 130.392753 2201.532125 
L 132.655154 2201.532125 
L 132.655154 205.780734 
L 130.392753 205.780734 
z
" style="fill:#ff7f0e;"/>
   </g>
   <g id="patch_259">
    <path clip-path="url(#p2ea532bbd1)" d="M 133.220754 2201.532125 
L 135.483155 2201.532125 
L 135.483155 209.100085 
L 133.220754 209.100085 
z
" style="fill:#ff7f0e;"/>
   </g>
   <g id="patch_260">
    <path clip-path="url(#p2ea532bbd1)" d="M 136.048755 2201.532125 
L 138.311156 2201.532125 
L 138.311156 209.159308 
L 136.048755 209.159308 
z
" style="fill:#ff7f0e;"/>
   </g>
   <g id="patch_261">
    <path clip-path="url(#p2ea532bbd1)" d="M 138.876756 2201.532125 
L 141.139157 2201.532125 
L 141.139157 209.119062 
L 138.876756 209.119062 
z
" style="fill:#ff7f0e;"/>
   </g>
   <g id="patch_262">
    <path clip-path="url(#p2ea532bbd1)" d="M 141.704758 2201.532125 
L 143.967159 2201.532125 
L 143.967159 209.180865 
L 141.704758 209.180865 
z
" style="fill:#ff7f0e;"/>
   </g>
   <g id="patch_263">
    <path clip-path="url(#p2ea532bbd1)" d="M 144.532759 2201.532125 
L 146.79516 2201.532125 
L 146.79516 204.997598 
L 144.532759 204.997598 
z
" style="fill:#ff7f0e;"/>
   </g>
   <g id="patch_264">
    <path clip-path="url(#p2ea532bbd1)" d="M 147.36076 2201.532125 
L 149.623161 2201.532125 
L 149.623161 200.477562 
L 147.36076 200.477562 
z
" style="fill:#ff7f0e;"/>
   </g>
   <g id="patch_265">
    <path clip-path="url(#p2ea532bbd1)" d="M 150.188761 2201.532125 
L 152.451162 2201.532125 
L 152.451162 208.169981 
L 150.188761 208.169981 
z
" style="fill:#ff7f0e;"/>
   </g>
   <g id="patch_266">
    <path clip-path="url(#p2ea532bbd1)" d="M 153.016763 2201.532125 
L 155.279164 2201.532125 
L 155.279164 206.576695 
L 153.016763 206.576695 
z
" style="fill:#ff7f0e;"/>
   </g>
   <g id="patch_267">
    <path clip-path="url(#p2ea532bbd1)" d="M 155.844764 2201.532125 
L 158.107165 2201.532125 
L 158.107165 296.346872 
L 155.844764 296.346872 
z
" style="fill:#ff7f0e;"/>
   </g>
   <g id="patch_268">
    <path clip-path="url(#p2ea532bbd1)" d="M 158.672765 2201.532125 
L 160.935166 2201.532125 
L 160.935166 295.681869 
L 158.672765 295.681869 
z
" style="fill:#ff7f0e;"/>
   </g>
   <g id="patch_269">
    <path clip-path="url(#p2ea532bbd1)" d="M 161.500767 2201.532125 
L 163.763168 2201.532125 
L 163.763168 295.258492 
L 161.500767 295.258492 
z
" style="fill:#ff7f0e;"/>
   </g>
   <g id="patch_270">
    <path clip-path="url(#p2ea532bbd1)" d="M 164.328768 2201.532125 
L 166.591169 2201.532125 
L 166.591169 297.333138 
L 164.328768 297.333138 
z
" style="fill:#ff7f0e;"/>
   </g>
   <g id="patch_271">
    <path clip-path="url(#p2ea532bbd1)" d="M 167.156769 2201.532125 
L 169.41917 2201.532125 
L 169.41917 296.057707 
L 167.156769 296.057707 
z
" style="fill:#ff7f0e;"/>
   </g>
   <g id="patch_272">
    <path clip-path="url(#p2ea532bbd1)" d="M 169.98477 2201.532125 
L 172.247171 2201.532125 
L 172.247171 295.673729 
L 169.98477 295.673729 
z
" style="fill:#ff7f0e;"/>
   </g>
   <g id="patch_273">
    <path clip-path="url(#p2ea532bbd1)" d="M 172.812772 2201.532125 
L 175.075173 2201.532125 
L 175.075173 295.603713 
L 172.812772 295.603713 
z
" style="fill:#ff7f0e;"/>
   </g>
   <g id="patch_274">
    <path clip-path="url(#p2ea532bbd1)" d="M 175.640773 2201.532125 
L 177.903174 2201.532125 
L 177.903174 296.994627 
L 175.640773 296.994627 
z
" style="fill:#ff7f0e;"/>
   </g>
   <g id="patch_275">
    <path clip-path="url(#p2ea532bbd1)" d="M 178.468774 2201.532125 
L 180.731175 2201.532125 
L 180.731175 296.070191 
L 178.468774 296.070191 
z
" style="fill:#ff7f0e;"/>
   </g>
   <g id="patch_276">
    <path clip-path="url(#p2ea532bbd1)" d="M 181.296775 2201.532125 
L 183.559176 2201.532125 
L 183.559176 296.167384 
L 181.296775 296.167384 
z
" style="fill:#ff7f0e;"/>
   </g>
   <g id="patch_277">
    <path clip-path="url(#p2ea532bbd1)" d="M 184.124777 2201.532125 
L 186.387178 2201.532125 
L 186.387178 296.616126 
L 184.124777 296.616126 
z
" style="fill:#ff7f0e;"/>
   </g>
   <g id="patch_278">
    <path clip-path="url(#p2ea532bbd1)" d="M 186.952778 2201.532125 
L 189.215179 2201.532125 
L 189.215179 296.007093 
L 186.952778 296.007093 
z
" style="fill:#ff7f0e;"/>
   </g>
   <g id="patch_279">
    <path clip-path="url(#p2ea532bbd1)" d="M 189.780779 2201.532125 
L 192.04318 2201.532125 
L 192.04318 295.424801 
L 189.780779 295.424801 
z
" style="fill:#ff7f0e;"/>
   </g>
   <g id="patch_280">
    <path clip-path="url(#p2ea532bbd1)" d="M 192.60878 2201.532125 
L 194.871182 2201.532125 
L 194.871182 295.631032 
L 192.60878 295.631032 
z
" style="fill:#ff7f0e;"/>
   </g>
   <g id="patch_281">
    <path clip-path="url(#p2ea532bbd1)" d="M 195.436782 2201.532125 
L 197.699183 2201.532125 
L 197.699183 296.190184 
L 195.436782 296.190184 
z
" style="fill:#ff7f0e;"/>
   </g>
   <g id="patch_282">
    <path clip-path="url(#p2ea532bbd1)" d="M 198.264783 2201.532125 
L 200.527184 2201.532125 
L 200.527184 295.81329 
L 198.264783 295.81329 
z
" style="fill:#ff7f0e;"/>
   </g>
   <g id="patch_283">
    <path clip-path="url(#p2ea532bbd1)" d="M 201.092784 2201.532125 
L 203.355185 2201.532125 
L 203.355185 295.483439 
L 201.092784 295.483439 
z
" style="fill:#ff7f0e;"/>
   </g>
   <g id="patch_284">
    <path clip-path="url(#p2ea532bbd1)" d="M 203.920786 2201.532125 
L 206.183187 2201.532125 
L 206.183187 295.338409 
L 203.920786 295.338409 
z
" style="fill:#ff7f0e;"/>
   </g>
   <g id="patch_285">
    <path clip-path="url(#p2ea532bbd1)" d="M 206.748787 2201.532125 
L 209.011188 2201.532125 
L 209.011188 295.693215 
L 206.748787 295.693215 
z
" style="fill:#ff7f0e;"/>
   </g>
   <g id="patch_286">
    <path clip-path="url(#p2ea532bbd1)" d="M 209.576788 2201.532125 
L 211.839189 2201.532125 
L 211.839189 295.664732 
L 209.576788 295.664732 
z
" style="fill:#ff7f0e;"/>
   </g>
   <g id="patch_287">
    <path clip-path="url(#p2ea532bbd1)" d="M 212.404789 2201.532125 
L 214.66719 2201.532125 
L 214.66719 292.246124 
L 212.404789 292.246124 
z
" style="fill:#ff7f0e;"/>
   </g>
   <g id="patch_288">
    <path clip-path="url(#p2ea532bbd1)" d="M 215.232791 2201.532125 
L 217.495192 2201.532125 
L 217.495192 296.989225 
L 215.232791 296.989225 
z
" style="fill:#ff7f0e;"/>
   </g>
   <g id="patch_289">
    <path clip-path="url(#p2ea532bbd1)" d="M 218.060792 2201.532125 
L 220.323193 2201.532125 
L 220.323193 296.640569 
L 218.060792 296.640569 
z
" style="fill:#ff7f0e;"/>
   </g>
   <g id="patch_290">
    <path clip-path="url(#p2ea532bbd1)" d="M 220.888793 2201.532125 
L 223.151194 2201.532125 
L 223.151194 297.179775 
L 220.888793 297.179775 
z
" style="fill:#ff7f0e;"/>
   </g>
   <g id="patch_291">
    <path clip-path="url(#p2ea532bbd1)" d="M 223.716794 2201.532125 
L 225.979195 2201.532125 
L 225.979195 292.568276 
L 223.716794 292.568276 
z
" style="fill:#ff7f0e;"/>
   </g>
   <g id="patch_292">
    <path clip-path="url(#p2ea532bbd1)" d="M 226.544796 2201.532125 
L 228.807197 2201.532125 
L 228.807197 297.817335 
L 226.544796 297.817335 
z
" style="fill:#ff7f0e;"/>
   </g>
   <g id="patch_293">
    <path clip-path="url(#p2ea532bbd1)" d="M 229.372797 2201.532125 
L 231.635198 2201.532125 
L 231.635198 297.355068 
L 229.372797 297.355068 
z
" style="fill:#ff7f0e;"/>
   </g>
   <g id="patch_294">
    <path clip-path="url(#p2ea532bbd1)" d="M 232.200798 2201.532125 
L 234.463199 2201.532125 
L 234.463199 296.254808 
L 232.200798 296.254808 
z
" style="fill:#ff7f0e;"/>
   </g>
   <g id="patch_295">
    <path clip-path="url(#p2ea532bbd1)" d="M 235.028799 2201.532125 
L 237.291201 2201.532125 
L 237.291201 297.117747 
L 235.028799 297.117747 
z
" style="fill:#ff7f0e;"/>
   </g>
   <g id="patch_296">
    <path clip-path="url(#p2ea532bbd1)" d="M 237.856801 2201.532125 
L 240.119202 2201.532125 
L 240.119202 297.038318 
L 237.856801 297.038318 
z
" style="fill:#ff7f0e;"/>
   </g>
   <g id="patch_297">
    <path clip-path="url(#p2ea532bbd1)" d="M 240.684802 2201.532125 
L 242.947203 2201.532125 
L 242.947203 289.555596 
L 240.684802 289.555596 
z
" style="fill:#ff7f0e;"/>
   </g>
   <g id="patch_298">
    <path clip-path="url(#p2ea532bbd1)" d="M 243.512803 2201.532125 
L 245.775204 2201.532125 
L 245.775204 290.75714 
L 243.512803 290.75714 
z
" style="fill:#ff7f0e;"/>
   </g>
   <g id="patch_299">
    <path clip-path="url(#p2ea532bbd1)" d="M 246.340805 2201.532125 
L 248.603206 2201.532125 
L 248.603206 292.299587 
L 246.340805 292.299587 
z
" style="fill:#ff7f0e;"/>
   </g>
   <g id="patch_300">
    <path clip-path="url(#p2ea532bbd1)" d="M 249.168806 2201.532125 
L 251.431207 2201.532125 
L 251.431207 289.658279 
L 249.168806 289.658279 
z
" style="fill:#ff7f0e;"/>
   </g>
   <g id="patch_301">
    <path clip-path="url(#p2ea532bbd1)" d="M 251.996807 2201.532125 
L 254.259208 2201.532125 
L 254.259208 287.451456 
L 251.996807 287.451456 
z
" style="fill:#ff7f0e;"/>
   </g>
   <g id="patch_302">
    <path clip-path="url(#p2ea532bbd1)" d="M 254.824808 2201.532125 
L 257.087209 2201.532125 
L 257.087209 287.463941 
L 254.824808 287.463941 
z
" style="fill:#ff7f0e;"/>
   </g>
   <g id="patch_303">
    <path clip-path="url(#p2ea532bbd1)" d="M 257.65281 2201.532125 
L 259.915211 2201.532125 
L 259.915211 289.927333 
L 257.65281 289.927333 
z
" style="fill:#ff7f0e;"/>
   </g>
   <g id="patch_304">
    <path clip-path="url(#p2ea532bbd1)" d="M 260.480811 2201.532125 
L 262.743212 2201.532125 
L 262.743212 283.190422 
L 260.480811 283.190422 
z
" style="fill:#ff7f0e;"/>
   </g>
   <g id="patch_305">
    <path clip-path="url(#p2ea532bbd1)" d="M 263.308812 2201.532125 
L 265.571213 2201.532125 
L 265.571213 287.276468 
L 263.308812 287.276468 
z
" style="fill:#ff7f0e;"/>
   </g>
   <g id="patch_306">
    <path clip-path="url(#p2ea532bbd1)" d="M 266.136813 2201.532125 
L 268.399214 2201.532125 
L 268.399214 287.051536 
L 266.136813 287.051536 
z
" style="fill:#ff7f0e;"/>
   </g>
   <g id="patch_307">
    <path clip-path="url(#p2ea532bbd1)" d="M 268.964815 2201.532125 
L 271.227216 2201.532125 
L 271.227216 286.452269 
L 268.964815 286.452269 
z
" style="fill:#ff7f0e;"/>
   </g>
   <g id="patch_308">
    <path clip-path="url(#p2ea532bbd1)" d="M 271.792816 2201.532125 
L 274.055217 2201.532125 
L 274.055217 287.937486 
L 271.792816 287.937486 
z
" style="fill:#ff7f0e;"/>
   </g>
   <g id="patch_309">
    <path clip-path="url(#p2ea532bbd1)" d="M 274.620817 2201.532125 
L 276.883218 2201.532125 
L 276.883218 288.090816 
L 274.620817 288.090816 
z
" style="fill:#ff7f0e;"/>
   </g>
   <g id="patch_310">
    <path clip-path="url(#p2ea532bbd1)" d="M 277.448818 2201.532125 
L 279.71122 2201.532125 
L 279.71122 287.845873 
L 277.448818 287.845873 
z
" style="fill:#ff7f0e;"/>
   </g>
   <g id="patch_311">
    <path clip-path="url(#p2ea532bbd1)" d="M 280.27682 2201.532125 
L 282.539221 2201.532125 
L 282.539221 288.768459 
L 280.27682 288.768459 
z
" style="fill:#ff7f0e;"/>
   </g>
   <g id="patch_312">
    <path clip-path="url(#p2ea532bbd1)" d="M 283.104821 2201.532125 
L 285.367222 2201.532125 
L 285.367222 289.30936 
L 283.104821 289.30936 
z
" style="fill:#ff7f0e;"/>
   </g>
   <g id="patch_313">
    <path clip-path="url(#p2ea532bbd1)" d="M 285.932822 2201.532125 
L 288.195223 2201.532125 
L 288.195223 286.216109 
L 285.932822 286.216109 
z
" style="fill:#ff7f0e;"/>
   </g>
   <g id="patch_314">
    <path clip-path="url(#p2ea532bbd1)" d="M 288.760824 2201.532125 
L 291.023225 2201.532125 
L 291.023225 289.297091 
L 288.760824 289.297091 
z
" style="fill:#ff7f0e;"/>
   </g>
   <g id="patch_315">
    <path clip-path="url(#p2ea532bbd1)" d="M 291.588825 2201.532125 
L 293.851226 2201.532125 
L 293.851226 288.763878 
L 291.588825 288.763878 
z
" style="fill:#ff7f0e;"/>
   </g>
   <g id="patch_316">
    <path clip-path="url(#p2ea532bbd1)" d="M 294.416826 2201.532125 
L 296.679227 2201.532125 
L 296.679227 287.334571 
L 294.416826 287.334571 
z
" style="fill:#ff7f0e;"/>
   </g>
   <g id="patch_317">
    <path clip-path="url(#p2ea532bbd1)" d="M 297.244827 2201.532125 
L 299.507228 2201.532125 
L 299.507228 288.695922 
L 297.244827 288.695922 
z
" style="fill:#ff7f0e;"/>
   </g>
   <g id="patch_318">
    <path clip-path="url(#p2ea532bbd1)" d="M 300.072829 2201.532125 
L 302.33523 2201.532125 
L 302.33523 289.603163 
L 300.072829 289.603163 
z
" style="fill:#ff7f0e;"/>
   </g>
   <g id="patch_319">
    <path clip-path="url(#p2ea532bbd1)" d="M 302.90083 2201.532125 
L 305.163231 2201.532125 
L 305.163231 284.432152 
L 302.90083 284.432152 
z
" style="fill:#ff7f0e;"/>
   </g>
   <g id="patch_320">
    <path clip-path="url(#p2ea532bbd1)" d="M 305.728831 2201.532125 
L 307.991232 2201.532125 
L 307.991232 288.000689 
L 305.728831 288.000689 
z
" style="fill:#ff7f0e;"/>
   </g>
   <g id="patch_321">
    <path clip-path="url(#p2ea532bbd1)" d="M 308.556832 2201.532125 
L 310.819233 2201.532125 
L 310.819233 287.692026 
L 308.556832 287.692026 
z
" style="fill:#ff7f0e;"/>
   </g>
   <g id="patch_322">
    <path clip-path="url(#p2ea532bbd1)" d="M 311.384834 2201.532125 
L 313.647235 2201.532125 
L 313.647235 286.375615 
L 311.384834 286.375615 
z
" style="fill:#ff7f0e;"/>
   </g>
   <g id="patch_323">
    <path clip-path="url(#p2ea532bbd1)" d="M 314.212835 2201.532125 
L 316.475236 2201.532125 
L 316.475236 286.555159 
L 314.212835 286.555159 
z
" style="fill:#ff7f0e;"/>
   </g>
   <g id="patch_324">
    <path clip-path="url(#p2ea532bbd1)" d="M 317.040836 2201.532125 
L 319.303237 2201.532125 
L 319.303237 289.276208 
L 317.040836 289.276208 
z
" style="fill:#ff7f0e;"/>
   </g>
   <g id="patch_325">
    <path clip-path="url(#p2ea532bbd1)" d="M 319.868838 2201.532125 
L 322.131239 2201.532125 
L 322.131239 286.760288 
L 319.868838 286.760288 
z
" style="fill:#ff7f0e;"/>
   </g>
   <g id="patch_326">
    <path clip-path="url(#p2ea532bbd1)" d="M 322.696839 2201.532125 
L 324.95924 2201.532125 
L 324.95924 289.151264 
L 322.696839 289.151264 
z
" style="fill:#ff7f0e;"/>
   </g>
   <g id="patch_327">
    <path clip-path="url(#p2ea532bbd1)" d="M 325.52484 2201.532125 
L 327.787241 2201.532125 
L 327.787241 300.329704 
L 325.52484 300.329704 
z
" style="fill:#ff7f0e;"/>
   </g>
   <g id="patch_328">
    <path clip-path="url(#p2ea532bbd1)" d="M 328.352841 2201.532125 
L 330.615242 2201.532125 
L 330.615242 296.611786 
L 328.352841 296.611786 
z
" style="fill:#ff7f0e;"/>
   </g>
   <g id="patch_329">
    <path clip-path="url(#p2ea532bbd1)" d="M 331.180843 2201.532125 
L 333.443244 2201.532125 
L 333.443244 297.772427 
L 331.180843 297.772427 
z
" style="fill:#ff7f0e;"/>
   </g>
   <g id="patch_330">
    <path clip-path="url(#p2ea532bbd1)" d="M 334.008844 2201.532125 
L 336.271245 2201.532125 
L 336.271245 296.498731 
L 334.008844 296.498731 
z
" style="fill:#ff7f0e;"/>
   </g>
   <g id="patch_331">
    <path clip-path="url(#p2ea532bbd1)" d="M 336.836845 2201.532125 
L 339.099246 2201.532125 
L 339.099246 297.242632 
L 336.836845 297.242632 
z
" style="fill:#ff7f0e;"/>
   </g>
   <g id="patch_332">
    <path clip-path="url(#p2ea532bbd1)" d="M 339.664846 2201.532125 
L 341.927247 2201.532125 
L 341.927247 295.63914 
L 339.664846 295.63914 
z
" style="fill:#ff7f0e;"/>
   </g>
   <g id="patch_333">
    <path clip-path="url(#p2ea532bbd1)" d="M 342.492848 2201.532125 
L 344.755249 2201.532125 
L 344.755249 295.505795 
L 342.492848 295.505795 
z
" style="fill:#ff7f0e;"/>
   </g>
   <g id="patch_334">
    <path clip-path="url(#p2ea532bbd1)" d="M 345.320849 2201.532125 
L 347.58325 2201.532125 
L 347.58325 294.576774 
L 345.320849 294.576774 
z
" style="fill:#ff7f0e;"/>
   </g>
   <g id="patch_335">
    <path clip-path="url(#p2ea532bbd1)" d="M 348.14885 2201.532125 
L 350.411251 2201.532125 
L 350.411251 295.953766 
L 348.14885 295.953766 
z
" style="fill:#ff7f0e;"/>
   </g>
   <g id="patch_336">
    <path clip-path="url(#p2ea532bbd1)" d="M 350.976851 2201.532125 
L 353.239252 2201.532125 
L 353.239252 295.219856 
L 350.976851 295.219856 
z
" style="fill:#ff7f0e;"/>
   </g>
   <g id="patch_337">
    <path clip-path="url(#p2ea532bbd1)" d="M 353.804853 2201.532125 
L 356.067254 2201.532125 
L 356.067254 296.62363 
L 353.804853 296.62363 
z
" style="fill:#ff7f0e;"/>
   </g>
   <g id="patch_338">
    <path clip-path="url(#p2ea532bbd1)" d="M 356.632854 2201.532125 
L 358.895255 2201.532125 
L 358.895255 294.528188 
L 356.632854 294.528188 
z
" style="fill:#ff7f0e;"/>
   </g>
   <g id="patch_339">
    <path clip-path="url(#p2ea532bbd1)" d="M 359.460855 2201.532125 
L 361.723256 2201.532125 
L 361.723256 295.136852 
L 359.460855 295.136852 
z
" style="fill:#ff7f0e;"/>
   </g>
   <g id="patch_340">
    <path clip-path="url(#p2ea532bbd1)" d="M 362.288857 2201.532125 
L 364.551258 2201.532125 
L 364.551258 295.210233 
L 362.288857 295.210233 
z
" style="fill:#ff7f0e;"/>
   </g>
   <g id="patch_341">
    <path clip-path="url(#p2ea532bbd1)" d="M 365.116858 2201.532125 
L 367.379259 2201.532125 
L 367.379259 295.391243 
L 365.116858 295.391243 
z
" style="fill:#ff7f0e;"/>
   </g>
   <g id="patch_342">
    <path clip-path="url(#p2ea532bbd1)" d="M 367.944859 2201.532125 
L 370.20726 2201.532125 
L 370.20726 295.810145 
L 367.944859 295.810145 
z
" style="fill:#ff7f0e;"/>
   </g>
   <g id="patch_343">
    <path clip-path="url(#p2ea532bbd1)" d="M 370.77286 2201.532125 
L 373.035261 2201.532125 
L 373.035261 295.948669 
L 370.77286 295.948669 
z
" style="fill:#ff7f0e;"/>
   </g>
   <g id="patch_344">
    <path clip-path="url(#p2ea532bbd1)" d="M 373.600862 2201.532125 
L 375.863263 2201.532125 
L 375.863263 295.215088 
L 373.600862 295.215088 
z
" style="fill:#ff7f0e;"/>
   </g>
   <g id="patch_345">
    <path clip-path="url(#p2ea532bbd1)" d="M 376.428863 2201.532125 
L 378.691264 2201.532125 
L 378.691264 296.24588 
L 376.428863 296.24588 
z
" style="fill:#ff7f0e;"/>
   </g>
   <g id="patch_346">
    <path clip-path="url(#p2ea532bbd1)" d="M 379.256864 2201.532125 
L 381.519265 2201.532125 
L 381.519265 293.647709 
L 379.256864 293.647709 
z
" style="fill:#ff7f0e;"/>
   </g>
   <g id="patch_347">
    <path clip-path="url(#p2ea532bbd1)" d="M 382.084865 2201.532125 
L 384.347266 2201.532125 
L 384.347266 295.101584 
L 382.084865 295.101584 
z
" style="fill:#ff7f0e;"/>
   </g>
   <g id="patch_348">
    <path clip-path="url(#p2ea532bbd1)" d="M 384.912867 2201.532125 
L 387.175268 2201.532125 
L 387.175268 295.398147 
L 384.912867 295.398147 
z
" style="fill:#ff7f0e;"/>
   </g>
   <g id="patch_349">
    <path clip-path="url(#p2ea532bbd1)" d="M 387.740868 2201.532125 
L 390.003269 2201.532125 
L 390.003269 296.794929 
L 387.740868 296.794929 
z
" style="fill:#ff7f0e;"/>
   </g>
   <g id="patch_350">
    <path clip-path="url(#p2ea532bbd1)" d="M 390.568869 2201.532125 
L 392.83127 2201.532125 
L 392.83127 295.477597 
L 390.568869 295.477597 
z
" style="fill:#ff7f0e;"/>
   </g>
   <g id="patch_351">
    <path clip-path="url(#p2ea532bbd1)" d="M 393.39687 2201.532125 
L 395.659271 2201.532125 
L 395.659271 295.726 
L 393.39687 295.726 
z
" style="fill:#ff7f0e;"/>
   </g>
   <g id="patch_352">
    <path clip-path="url(#p2ea532bbd1)" d="M 396.224872 2201.532125 
L 398.487273 2201.532125 
L 398.487273 2201.532125 
L 396.224872 2201.532125 
z
" style="fill:#ff7f0e;"/>
   </g>
   <g id="matplotlib.axis_3">
    <g id="xtick_8">
     <g id="line2d_14">
      <g>
       <use style="stroke:#000000;stroke-width:0.8;" x="74.963928" xlink:href="#m093407cba6" y="307.584"/>
      </g>
     </g>
     <g id="text_15">
      <!-- 0 -->
      <g transform="translate(71.782678 322.182437)scale(0.1 -0.1)">
       <use xlink:href="#DejaVuSans-30"/>
      </g>
     </g>
    </g>
    <g id="xtick_9">
     <g id="line2d_15">
      <g>
       <use style="stroke:#000000;stroke-width:0.8;" x="131.523953" xlink:href="#m093407cba6" y="307.584"/>
      </g>
     </g>
     <g id="text_16">
      <!-- 20 -->
      <g transform="translate(125.161453 322.182437)scale(0.1 -0.1)">
       <use xlink:href="#DejaVuSans-32"/>
       <use x="63.623047" xlink:href="#DejaVuSans-30"/>
      </g>
     </g>
    </g>
    <g id="xtick_10">
     <g id="line2d_16">
      <g>
       <use style="stroke:#000000;stroke-width:0.8;" x="188.083978" xlink:href="#m093407cba6" y="307.584"/>
      </g>
     </g>
     <g id="text_17">
      <!-- 40 -->
      <g transform="translate(181.721478 322.182437)scale(0.1 -0.1)">
       <use xlink:href="#DejaVuSans-34"/>
       <use x="63.623047" xlink:href="#DejaVuSans-30"/>
      </g>
     </g>
    </g>
    <g id="xtick_11">
     <g id="line2d_17">
      <g>
       <use style="stroke:#000000;stroke-width:0.8;" x="244.644004" xlink:href="#m093407cba6" y="307.584"/>
      </g>
     </g>
     <g id="text_18">
      <!-- 60 -->
      <g transform="translate(238.281504 322.182437)scale(0.1 -0.1)">
       <use xlink:href="#DejaVuSans-36"/>
       <use x="63.623047" xlink:href="#DejaVuSans-30"/>
      </g>
     </g>
    </g>
    <g id="xtick_12">
     <g id="line2d_18">
      <g>
       <use style="stroke:#000000;stroke-width:0.8;" x="301.204029" xlink:href="#m093407cba6" y="307.584"/>
      </g>
     </g>
     <g id="text_19">
      <!-- 80 -->
      <g transform="translate(294.841529 322.182437)scale(0.1 -0.1)">
       <use xlink:href="#DejaVuSans-38"/>
       <use x="63.623047" xlink:href="#DejaVuSans-30"/>
      </g>
     </g>
    </g>
    <g id="xtick_13">
     <g id="line2d_19">
      <g>
       <use style="stroke:#000000;stroke-width:0.8;" x="357.764054" xlink:href="#m093407cba6" y="307.584"/>
      </g>
     </g>
     <g id="text_20">
      <!-- 100 -->
      <g transform="translate(348.220304 322.182437)scale(0.1 -0.1)">
       <use xlink:href="#DejaVuSans-31"/>
       <use x="63.623047" xlink:href="#DejaVuSans-30"/>
       <use x="127.246094" xlink:href="#DejaVuSans-30"/>
      </g>
     </g>
    </g>
    <g id="xtick_14">
     <g id="line2d_20">
      <g>
       <use style="stroke:#000000;stroke-width:0.8;" x="414.32408" xlink:href="#m093407cba6" y="307.584"/>
      </g>
     </g>
     <g id="text_21">
      <!-- 120 -->
      <g transform="translate(404.78033 322.182437)scale(0.1 -0.1)">
       <use xlink:href="#DejaVuSans-31"/>
       <use x="63.623047" xlink:href="#DejaVuSans-32"/>
       <use x="127.246094" xlink:href="#DejaVuSans-30"/>
      </g>
     </g>
    </g>
    <g id="text_22">
     <!-- Obs -->
     <g transform="translate(226.445156 335.860562)scale(0.1 -0.1)">
      <use xlink:href="#DejaVuSans-4f"/>
      <use x="78.710938" xlink:href="#DejaVuSans-62"/>
      <use x="142.1875" xlink:href="#DejaVuSans-73"/>
     </g>
    </g>
   </g>
   <g id="matplotlib.axis_4">
    <g id="ytick_6">
     <g id="line2d_21">
      <g>
       <use style="stroke:#000000;stroke-width:0.8;" x="57.6" xlink:href="#mfff47ca395" y="284.029105"/>
      </g>
     </g>
     <g id="text_23">
      <!-- $\mathdefault{10^{2}}$ -->
      <g transform="translate(33 287.828324)scale(0.1 -0.1)">
       <use transform="translate(0 0.765625)" xlink:href="#DejaVuSans-31"/>
       <use transform="translate(63.623047 0.765625)" xlink:href="#DejaVuSans-30"/>
       <use transform="translate(128.203125 39.046875)scale(0.7)" xlink:href="#DejaVuSans-32"/>
      </g>
     </g>
    </g>
    <g id="ytick_7">
     <g id="line2d_22">
      <g>
       <use style="stroke:#000000;stroke-width:0.8;" x="57.6" xlink:href="#mfff47ca395" y="258.631714"/>
      </g>
     </g>
     <g id="text_24">
      <!-- $\mathdefault{10^{6}}$ -->
      <g transform="translate(33 262.430933)scale(0.1 -0.1)">
       <use transform="translate(0 0.765625)" xlink:href="#DejaVuSans-31"/>
       <use transform="translate(63.623047 0.765625)" xlink:href="#DejaVuSans-30"/>
       <use transform="translate(128.203125 39.046875)scale(0.7)" xlink:href="#DejaVuSans-36"/>
      </g>
     </g>
    </g>
    <g id="ytick_8">
     <g id="line2d_23">
      <g>
       <use style="stroke:#000000;stroke-width:0.8;" x="57.6" xlink:href="#mfff47ca395" y="233.234323"/>
      </g>
     </g>
     <g id="text_25">
      <!-- $\mathdefault{10^{10}}$ -->
      <g transform="translate(28.5 237.033542)scale(0.1 -0.1)">
       <use transform="translate(0 0.765625)" xlink:href="#DejaVuSans-31"/>
       <use transform="translate(63.623047 0.765625)" xlink:href="#DejaVuSans-30"/>
       <use transform="translate(128.203125 39.046875)scale(0.7)" xlink:href="#DejaVuSans-31"/>
       <use transform="translate(172.739258 39.046875)scale(0.7)" xlink:href="#DejaVuSans-30"/>
      </g>
     </g>
    </g>
    <g id="ytick_9">
     <g id="line2d_24">
      <g>
       <use style="stroke:#000000;stroke-width:0.8;" x="57.6" xlink:href="#mfff47ca395" y="207.836932"/>
      </g>
     </g>
     <g id="text_26">
      <!-- $\mathdefault{10^{14}}$ -->
      <g transform="translate(28.5 211.636151)scale(0.1 -0.1)">
       <use transform="translate(0 0.684375)" xlink:href="#DejaVuSans-31"/>
       <use transform="translate(63.623047 0.684375)" xlink:href="#DejaVuSans-30"/>
       <use transform="translate(128.203125 38.965625)scale(0.7)" xlink:href="#DejaVuSans-31"/>
       <use transform="translate(172.739258 38.965625)scale(0.7)" xlink:href="#DejaVuSans-34"/>
      </g>
     </g>
    </g>
    <g id="text_27">
     <!-- $D_{1,1}$ -->
     <defs>
      <path d="M 16.890625 72.90625 
L 38.09375 72.90625 
Q 54.984375 72.90625 63.59375 65.75 
Q 72.21875 58.59375 72.21875 44.484375 
Q 72.21875 35.15625 68.9375 26.53125 
Q 65.671875 17.921875 59.90625 12.015625 
Q 54.109375 5.953125 45.171875 2.96875 
Q 36.234375 0 24.03125 0 
L 2.6875 0 
z
M 25.203125 64.796875 
L 14.203125 8.109375 
L 27.09375 8.109375 
Q 43.65625 8.109375 52.734375 17.625 
Q 61.8125 27.15625 61.8125 44.484375 
Q 61.8125 54.984375 55.953125 59.890625 
Q 50.09375 64.796875 37.59375 64.796875 
z
" id="DejaVuSans-Oblique-44"/>
     </defs>
     <g transform="translate(20.5 263.504)rotate(-90)scale(0.16 -0.16)">
      <use transform="translate(0 0.09375)" xlink:href="#DejaVuSans-Oblique-44"/>
      <use transform="translate(77.001953 -16.3125)scale(0.7)" xlink:href="#DejaVuSans-31"/>
      <use transform="translate(121.538086 -16.3125)scale(0.7)" xlink:href="#DejaVuSans-2c"/>
      <use transform="translate(157.426758 -16.3125)scale(0.7)" xlink:href="#DejaVuSans-31"/>
     </g>
    </g>
   </g>
   <g id="line2d_25">
    <path clip-path="url(#p2ea532bbd1)" style="fill:none;stroke:#ff0000;stroke-dasharray:5.55,2.4;stroke-dashoffset:0;stroke-width:1.5;"/>
   </g>
   <g id="patch_353">
    <path d="M 57.6 307.584 
L 57.6 186.624 
" style="fill:none;stroke:#000000;stroke-linecap:square;stroke-linejoin:miter;stroke-width:0.8;"/>
   </g>
   <g id="patch_354">
    <path d="M 414.72 307.584 
L 414.72 186.624 
" style="fill:none;stroke:#000000;stroke-linecap:square;stroke-linejoin:miter;stroke-width:0.8;"/>
   </g>
   <g id="patch_355">
    <path d="M 57.6 307.584 
L 414.72 307.584 
" style="fill:none;stroke:#000000;stroke-linecap:square;stroke-linejoin:miter;stroke-width:0.8;"/>
   </g>
   <g id="patch_356">
    <path d="M 57.6 186.624 
L 414.72 186.624 
" style="fill:none;stroke:#000000;stroke-linecap:square;stroke-linejoin:miter;stroke-width:0.8;"/>
   </g>
  </g>
 </g>
 <defs>
  <clipPath id="p970ab4bc81">
   <rect height="120.96" width="357.12" x="57.6" y="41.472"/>
  </clipPath>
  <clipPath id="p2ea532bbd1">
   <rect height="120.96" width="357.12" x="57.6" y="186.624"/>
  </clipPath>
 </defs>
</svg>
